<?xml version="1.0" encoding="utf-8"?>
<!-- Generator: Adobe Illustrator 23.0.1, SVG Export Plug-In . SVG Version: 6.00 Build 0)  -->
<svg version="1.1" id="Layer_1" xmlns="http://www.w3.org/2000/svg" xmlns:xlink="http://www.w3.org/1999/xlink" x="0px" y="0px"
	 viewBox="0 0 72 65" enable-background="new 0 0 72 65" xml:space="preserve">
<path fill="#89C765" d="M989.2-17c-10.7,27.1-27.7,50.8-48.8,68.6c-5.3,4.5-10.9,8.7-16.8,12.4c-3.4,2.2-6.9,4.2-10.4,6.1
	c-26.9,14.4-57.9,20.6-90.2,15.3v-21c44.7,13.6,92,0.9,128-31.5v0C966,19.5,979,2.7,989.2-17z"/>
<path fill="#116A75" d="M940.4,51.6c-34.7,52-80.5,88.8-117.4,79.2V85.4c32.3,5.3,63.3-0.9,90.2-15.3c3.5-1.7,7-3.7,10.4-6.1
	C929.4,60.3,935,56.1,940.4,51.6z"/>
<path fill="#116A75" d="M951,32.9L951,32.9c-36.1,32.4-83.3,45-128,31.5V8.9C863.7,40.1,913.2,54.9,951,32.9z"/>
<polygon fill="#89C765" points="863.9,104.3 859.6,102.2 861.9,98 857.1,98.9 856.5,94.1 853.2,97.6 849.9,94.1 849.3,98.9 
	844.5,98 846.9,102.2 842.5,104.3 846.9,106.3 844.5,110.6 849.3,109.7 849.9,114.5 853.2,110.9 856.5,114.5 857.1,109.7 
	861.9,110.6 859.6,106.3 "/>
<path fill="#89C765" d="M861.8,50.3l-3.5-1.7l1.9-3.4l-3.8,0.7l-0.5-3.9l-2.7,2.8l-2.7-2.8l-0.5,3.9l-3.8-0.7l1.9,3.4l-3.5,1.7h-1.7
	c0,5.7,4.6,10.3,10.3,10.3c5.7,0,10.3-4.6,10.3-10.3H861.8z"/>
<g>
	<g>
		<g>
			<path fill="#89C765" d="M991.6-21.1c-0.2-0.1-0.4-0.2-0.6-0.2c-0.3,0-0.6,0.1-0.9,0.3l-24,20.5c-0.4,0.3-0.6,0.9-0.4,1.4
				c0.1,0.5,0.5,0.9,1,1l11.2,2.5l8.6,7.9c0.3,0.2,0.6,0.4,0.9,0.4c0.1,0,0.3,0,0.4-0.1l0.1,0c0.5-0.2,0.8-0.6,0.9-1.1l3.6-31.3
				C992.4-20.3,992.1-20.8,991.6-21.1z M988.8-13l-2.5,21.6l-6.1-5.7L988.8-13z M977.8,1.7l-7.9-1.8l16.4-14L977.8,1.7z"/>
		</g>
	</g>
</g>
<path fill="#89C765" d="M68.8,3c-4.3,10.9-11.1,20.4-19.6,27.6c-2.1,1.8-4.4,3.5-6.7,5c-1.4,0.9-2.8,1.7-4.2,2.5
	C27.5,43.8,15,46.3,2,44.1v-8.5C20,41.1,39,36,53.5,23v0C59.5,17.6,64.7,10.9,68.8,3z"/>
<path fill="#116A75" d="M49.2,30.6C35.2,51.4,16.8,66.3,2,62.4l0-18.2c13,2.1,25.5-0.3,36.3-6.1c1.4-0.7,2.8-1.5,4.2-2.5
	C44.8,34,47,32.4,49.2,30.6z"/>
<path fill="#116A75" d="M53.5,23L53.5,23C39,36,20,41.1,2,35.7l0-22.3C18.4,25.9,38.3,31.9,53.5,23z"/>
<polygon fill="#89C765" points="18.5,51.7 16.7,50.9 17.6,49.2 15.7,49.5 15.5,47.6 14.2,49 12.8,47.6 12.6,49.5 10.7,49.2 
	11.6,50.9 9.8,51.7 11.6,52.5 10.7,54.3 12.6,53.9 12.8,55.8 14.2,54.4 15.5,55.8 15.7,53.9 17.6,54.3 16.7,52.5 "/>
<path fill="#89C765" d="M17.6,30l-1.4-0.7L17,28l-1.5,0.3l-0.2-1.6l-1.1,1.1l-1.1-1.1l-0.2,1.6L11.3,28l0.8,1.4L10.7,30H10
	c0,2.3,1.9,4.2,4.2,4.2c2.3,0,4.2-1.9,4.2-4.2H17.6z"/>
<g>
	<g>
		<g>
			<path fill="#89C765" d="M69.8,1.3c-0.1,0-0.2-0.1-0.3-0.1c-0.1,0-0.3,0-0.4,0.1l-9.7,8.2c-0.2,0.1-0.2,0.3-0.2,0.5
				c0,0.2,0.2,0.4,0.4,0.4l4.5,1l3.4,3.2c0.1,0.1,0.2,0.1,0.4,0.1c0.1,0,0.1,0,0.2,0l0,0c0.2-0.1,0.3-0.2,0.4-0.5l1.5-12.6
				C70.1,1.7,70,1.4,69.8,1.3z M68.7,4.6l-1,8.7L65.2,11L68.7,4.6z M64.2,10.5l-3.2-0.7l6.6-5.6L64.2,10.5z"/>
		</g>
	</g>
</g>
</svg>
