<?xml version="1.0" encoding="utf-8"?>
<!-- Generator: Adobe Illustrator 25.0.1, SVG Export Plug-In . SVG Version: 6.00 Build 0)  -->
<svg version="1.1" id="Capa_1" xmlns="http://www.w3.org/2000/svg" xmlns:xlink="http://www.w3.org/1999/xlink" x="0px" y="0px"
	 viewBox="0 0 512 512" style="enable-background:new 0 0 512 512;" xml:space="preserve">
<style type="text/css">
	.st0{fill:#FFFFFF;}
</style>
<g>
	<path class="st0" d="M160.3,386.6c-2.7-3.1-7.5-3.4-10.6-0.7c-3.1,2.7-3.4,7.5-0.7,10.6l24.2,27.4v78.7c0,4.1,3.4,7.5,7.5,7.5
		s7.5-3.4,7.5-7.5v-81.5c0-1.8-0.7-3.6-1.9-5L160.3,386.6z"/>
	<path class="st0" d="M107.5,326.7C86.6,303,81.9,269.4,95.6,241l10.1-21c1.8-3.7,0.2-8.2-3.5-10s-8.2-0.2-10,3.5l-10.1,21
		c-16.3,33.9-10.8,74,14.1,102.2l31.3,35.5c1.5,1.7,3.5,2.5,5.6,2.5c1.8,0,3.5-0.6,5-1.9c3.1-2.7,3.4-7.5,0.7-10.6L107.5,326.7z"/>
	<path class="st0" d="M357.9,120c-9.6,0-18.4,3.8-24.8,10c-6-11.6-18-19.5-31.9-19.5c-9.8,0-18.8,4-25.2,10.4
		c-6.1-11.2-17.9-18.8-31.5-18.8c-9.8,0-18.7,4-25.2,10.3c-6.1-11.3-18-18.9-31.6-18.9c-19.8,0-35.9,16.1-35.9,35.9v31.4
		c-17.2-0.7-34.1,7.3-44.3,22.5c-2.3,3.4-1.4,8.1,2,10.4c3.4,2.3,8.1,1.4,10.4-2c10.4-15.4,30.6-20.4,47-11.6l89.9,48.3
		c4.6,2.4,7.5,7.2,7.5,12.4c0.1,5.4-2.8,10.3-7.5,12.9L245,260c-16.7,9-36.9,9.3-53.9,0.8l-27.3-13.6c-3.7-1.8-8.2-0.3-10,3.4
		s-0.3,8.2,3.4,10l27.3,13.6c10.3,5.2,21.6,7.7,32.8,7.7c12,0,24-2.9,34.9-8.8l0.9-0.5l14.9,18c6.8,8.2,10.6,18.6,10.6,29.3V363
		c0,4.1,3.4,7.5,7.5,7.5s7.5-3.4,7.5-7.5v-43c0-14.2-5-28-14-38.9l-13.1-15.8c8.2-5.5,13.2-14.8,13-24.9c-0.1-4.2-1.1-8.3-2.8-12
		c6.4,6.2,15.2,10,24.8,10c10,0,19-4.1,25.5-10.7c6.2,10.9,17.9,18.3,31.3,18.3c5.7,0,11.1-1.3,15.9-3.7v17.9c0,4.1,3.4,7.5,7.5,7.5
		s7.5-3.4,7.5-7.5v-31.8c3.2-5.3,5-11.6,5-18.2v-54.3C393.8,136.1,377.7,120,357.9,120L357.9,120z M166.7,163.8v-34.3
		c0-11.5,9.4-20.9,20.9-20.9s20.9,9.4,20.9,20.9v56.1L173.9,167C171.5,165.7,169.1,164.6,166.7,163.8z M223.5,193.6V138
		c0-11.5,9.4-20.9,20.9-20.9s20.9,9.4,20.9,20.9v64.5c0,4.1-1.2,8.2-3.5,11.5L223.5,193.6z M301.2,223.5c-11.5,0-20.9-9.4-20.9-20.9
		v-56.2c0-11.5,9.4-20.9,20.9-20.9s20.9,9.4,20.9,20.9v56.2C322.1,214.1,312.7,223.5,301.2,223.5z M357.9,231.1
		c-11.5,0-20.9-9.4-20.9-20.9v-54.3c0-11.5,9.4-20.9,20.9-20.9s20.9,9.4,20.9,20.9v54.3C378.8,221.8,369.5,231.1,357.9,231.1z"/>
	<path class="st0" d="M381.3,284.7c-4.1,0-7.5,3.4-7.5,7.5V360c0,11.2-3,22.3-8.7,32l-11.4,19.4c-1.7,2.8-2.5,6.1-2.5,9.3v81.9
		c0,4.1,3.4,7.5,7.5,7.5s7.5-3.4,7.5-7.5v-81.9c0-0.6,0.2-1.2,0.5-1.8l11.4-19.4c7-12,10.7-25.7,10.7-39.6V292
		C388.8,288,385.5,284.7,381.3,284.7z"/>
	<path class="st0" d="M339.9,73.7c1.3,0.8,2.7,1.2,4,1.2c2.5,0,4.9-1.2,6.3-3.4l37.3-58c2.2-3.5,1.2-8.1-2.2-10.4
		c-3.5-2.2-8.1-1.2-10.4,2.2l-37.3,58C335.5,66.8,336.5,71.5,339.9,73.7z"/>
	<path class="st0" d="M416.9,123.9c1.4,1.1,3,1.6,4.6,1.6c2.2,0,4.4-1,5.9-2.9l83-105.9c2.6-3.3,2-8-1.3-10.5s-8-2-10.5,1.3
		l-83,105.9C413,116.7,413.6,121.4,416.9,123.9z"/>
	<path class="st0" d="M500.9,198.7l-33.3,18.5c-3.6,2-4.9,6.6-2.9,10.2c1.4,2.5,3.9,3.9,6.6,3.9c1.2,0,2.5-0.3,3.6-0.9l33.3-18.5
		c3.6-2,4.9-6.6,2.9-10.2C509,198,504.5,196.7,500.9,198.7L500.9,198.7z"/>
	<path class="st0" d="M507.4,337l-32.3-19.5c-3.5-2.1-8.1-1-10.3,2.5c-2.1,3.5-1,8.1,2.5,10.3l32.3,19.5c1.2,0.7,2.5,1.1,3.9,1.1
		c2.5,0,5-1.3,6.4-3.6C512,343.7,510.9,339.1,507.4,337L507.4,337z"/>
	<path class="st0" d="M417.8,386.4c-2.7-3.1-7.4-3.5-10.6-0.8c-3.1,2.7-3.5,7.4-0.8,10.6l12,14.1c1.5,1.7,3.6,2.6,5.7,2.6
		c1.7,0,3.5-0.6,4.9-1.8c3.1-2.7,3.5-7.4,0.8-10.6L417.8,386.4z"/>
	<path class="st0" d="M451.2,425.5c-2.7-3.1-7.4-3.5-10.6-0.8c-3.1,2.7-3.5,7.4-0.8,10.6l41.8,48.9c1.5,1.7,3.6,2.6,5.7,2.6
		c1.7,0,3.5-0.6,4.9-1.8c3.1-2.7,3.5-7.4,0.8-10.6L451.2,425.5z"/>
	<path class="st0" d="M282.3,53.7c0.8,0.3,1.6,0.4,2.4,0.4c3.1,0,6.1-2,7.1-5.1l8.3-24.9c1.3-3.9-0.8-8.2-4.7-9.5
		c-3.9-1.3-8.2,0.8-9.5,4.7l-8.3,24.9C276.2,48.1,278.3,52.4,282.3,53.7z"/>
	<path class="st0" d="M161.7,71.5c1.4,2.2,3.8,3.4,6.3,3.4c1.4,0,2.8-0.4,4-1.2c3.5-2.2,4.5-6.9,2.2-10.4L137,5.3
		c-2.2-3.5-6.9-4.5-10.4-2.2c-3.5,2.2-4.5,6.9-2.2,10.4L161.7,71.5z"/>
	<path class="st0" d="M86.7,122.7c1.5,1.9,3.7,2.8,5.9,2.8c1.6,0,3.3-0.5,4.7-1.6c3.2-2.6,3.8-7.3,1.2-10.5L13.4,6.5
		C10.8,3.3,6.1,2.7,2.8,5.3S-1,12.6,1.6,15.8L86.7,122.7z"/>
	<path class="st0" d="M39.3,230.4c1.1,0.6,2.3,0.9,3.5,0.9c2.7,0,5.3-1.5,6.6-4c1.9-3.7,0.5-8.2-3.2-10.1L11,198.6
		c-3.7-1.9-8.2-0.5-10.1,3.2s-0.5,8.2,3.2,10.1L39.3,230.4z"/>
	<path class="st0" d="M49.2,320c-2.1-3.5-6.7-4.7-10.3-2.5L6.6,337c-3.5,2.1-4.7,6.7-2.5,10.3c1.4,2.3,3.9,3.6,6.4,3.6
		c1.3,0,2.7-0.3,3.9-1.1l32.3-19.5C50.2,328.1,51.4,323.5,49.2,320L49.2,320z"/>
	<path class="st0" d="M106.7,385.6c-3.1-2.7-7.9-2.3-10.6,0.8l-12,14.1c-2.7,3.1-2.3,7.9,0.8,10.6c1.4,1.2,3.1,1.8,4.9,1.8
		c2.1,0,4.2-0.9,5.7-2.6l12-14.1C110.2,393,109.9,388.3,106.7,385.6z"/>
	<path class="st0" d="M73.3,424.6c-3.1-2.7-7.9-2.3-10.6,0.8l-41.7,49c-2.7,3.1-2.3,7.9,0.8,10.6c1.4,1.2,3.1,1.8,4.9,1.8
		c2.1,0,4.2-0.9,5.7-2.6l41.8-48.9C76.9,432.1,76.5,427.3,73.3,424.6z"/>
	<path class="st0" d="M220.3,48.9c1,3.1,4,5.1,7.1,5.1c0.8,0,1.6-0.1,2.4-0.4c3.9-1.3,6.1-5.5,4.7-9.5l-8.3-24.9
		c-1.3-3.9-5.5-6-9.5-4.7c-3.9,1.3-6.1,5.5-4.7,9.5L220.3,48.9z"/>
</g>
</svg>
