<?xml version="1.0" encoding="utf-8"?>
<!-- Generator: Adobe Illustrator 25.0.1, SVG Export Plug-In . SVG Version: 6.00 Build 0)  -->
<svg version="1.1" id="Capa_1" xmlns="http://www.w3.org/2000/svg" xmlns:xlink="http://www.w3.org/1999/xlink" x="0px" y="0px"
	 viewBox="0 0 512 512" style="enable-background:new 0 0 512 512;" xml:space="preserve">
<style type="text/css">
	.st0{fill:#FFFFFF;}
</style>
<g>
	<g>
		<g>
			<path class="st0" d="M484.3,205.7c-4.4,0-8.3-2.9-9.6-7.1c-1.2-4.1,0.3-8.6,3.7-11c3.3-2.3,7.7-2.5,11.1-0.4
				c3.5,2.2,5.3,6.4,4.5,10.4C493.2,202.2,489,205.7,484.3,205.7L484.3,205.7z"/>
		</g>
		<g>
			<path class="st0" d="M294,277.4c-11,0-22-4.2-30.3-12.5l-48.1-48.1c-14.3-14.3-14.3-37.4,0-51.7s37.4-14.3,51.7,0l26.7,26.7
				l67.2-67.2c14.3-14.3,37.4-14.3,51.7,0c14.3,14.3,14.3,37.4,0,51.7l-88.6,88.6C316,273.2,305,277.4,294,277.4z M241.5,174.4
				c-4.2,0-8.5,1.6-11.7,4.8c-6.5,6.5-6.5,17,0,23.4l48.1,48.1c8.9,8.9,23.5,8.9,32.4,0l88.6-88.6c6.5-6.5,6.5-17,0-23.4
				c-6.5-6.5-17-6.5-23.4,0L301.1,213c-1.9,1.9-4.4,2.9-7.1,2.9s-5.2-1.1-7.1-2.9l-33.8-33.8C249.9,176,245.7,174.4,241.5,174.4
				L241.5,174.4z"/>
		</g>
		<path class="st0" d="M480.9,231.7c-5.3-1.4-10.8,1.8-12.2,7.2c-0.2,1-0.5,1.9-0.8,2.8c-15.4,55.4-58.5,100.6-113,118.9
			c-0.3-0.4-0.7-0.7-1-1.1L330.4,336c-20.3-20.2-53.3-20.2-73.5,0l-15.7,15.6c-55.1-17.6-76.7-39-94.3-94l15.7-15.6
			c9.8-9.8,15.2-22.8,15.2-36.7s-5.4-26.9-15.2-36.7L139,145.2c-2-2-4.2-3.9-6.5-5.5C156.2,68.9,223.8,20,299,20
			c80.9,0,150.9,54.6,170.2,132.9c1.1,4.6,5.2,7.6,9.7,7.6c0.8,0,1.6-0.1,2.4-0.3c5.4-1.3,8.6-6.7,7.3-12.1
			c-10.3-41.6-34.5-79.2-68.3-105.9C385.5,14.6,343.5,0,299,0c-43,0-83.7,13.6-117.8,39.5c-30.7,23.2-54.2,55.6-66.8,91.7
			c-17.7-4.5-37.3,0.2-51.2,14l-22.7,22.6c-17.6,17.6-33.1,41.7-14,87.2c2.6,6.2,8.1,14.6,16.9,25.9c0.2,0.2,0.3,0.4,0.5,0.6
			L61,300.2c0.1,0.1,0.2,0.2,0.3,0.3l137.1,136.7c0.1,0.1,0.2,0.2,0.3,0.3l18.8,17c0.2,0.2,0.4,0.3,0.6,0.5
			c11.3,8.7,19.8,14.2,25.9,16.8c14.8,6.2,27.4,8.7,38.2,8.7c21.1,0,35.6-9.7,47.1-20.8l41.5,41.5c6.8,6.8,15.9,10.6,25.6,10.6
			s18.7-3.8,25.6-10.6c6.8-6.8,10.6-15.9,10.6-25.6s-3.8-18.7-10.6-25.6l-23.4-23l30.2-30.2c3.9-3.9,3.9-10.2,0-14.1
			s-10.2-3.9-14.1,0L377.4,420c-3.9,3.9-3.9,10.2,0,14.1l30.4,30.4c3.1,3.1,4.7,7.1,4.7,11.4s-1.7,8.4-4.7,11.4
			c-3.1,3.1-7.1,4.7-11.4,4.7s-8.4-1.7-11.4-4.7l-41.4-41.4l10.5-10.5c10.1-10.1,15.7-23.6,15.7-37.9c0-6.8-1.3-13.4-3.6-19.5
			c27.3-10,52.3-26.1,72.7-47c23-23.5,39.7-52.5,48.5-83.9c0.3-1.1,0.6-2.1,0.9-3.2C489.5,238.6,486.2,233.1,480.9,231.7
			L480.9,231.7z M339.8,421.2l-22.7,22.6c-13.8,13.8-29.2,24.9-65.5,9.7c-2.5-1-8.5-4.2-21.1-13.9L212.3,423L75.5,286.6l-16.7-18.3
			c-9.7-12.5-12.9-18.5-14-21c-15.2-36.2-4.1-51.5,9.7-65.3l22.7-22.6c13.1-13.1,34.5-13.1,47.6,0l23.5,23.5c6,6,9.4,14,9.4,22.6
			c0,8.5-3.3,16.5-9.4,22.6L128.4,248c-2.6,2.6-3.6,6.4-2.5,10c10.7,35.4,22.7,57.8,39.9,75s39.7,29.1,75.2,39.8
			c3.5,1.1,7.3,0.1,10-2.5l19.9-19.9c12.5-12.5,32.8-12.5,45.3,0l23.5,23.5c6.4,6.3,9.8,14.8,9.8,23.7
			C349.7,406.4,346.2,414.9,339.8,421.2L339.8,421.2z"/>
	</g>
</g>
</svg>
