<?xml version="1.0" encoding="utf-8"?>
<!-- Generator: Adobe Illustrator 25.0.1, SVG Export Plug-In . SVG Version: 6.00 Build 0)  -->
<svg version="1.1" id="Capa_1" xmlns="http://www.w3.org/2000/svg" xmlns:xlink="http://www.w3.org/1999/xlink" x="0px" y="0px"
	 viewBox="0 0 512 512" style="enable-background:new 0 0 512 512;" xml:space="preserve">
<style type="text/css">
	.st0{fill:#444444;}
</style>
<g>
	<path class="st0" d="M76.8,371.9c-30.8-56.9-34-130,0-193.4c2.6-4.9,8.8-6.7,13.7-4.1c4.9,2.6,6.7,8.8,4.1,13.7
		c-29.5,54.6-29.5,119.7,0,174.3c2.6,4.9,0.8,11-4.1,13.7C85.9,378.4,79.6,377.1,76.8,371.9L76.8,371.9z M48,406.9
		c4.8-2.8,6.5-9,3.7-13.8c-42-72.7-42-163.1,0-235.9c2.8-4.8,1.1-11-3.7-13.8c-4.8-2.8-11-1.1-13.8,3.7c-45.6,79-45.6,177.1,0,256
		C37.1,408.2,43.4,409.5,48,406.9L48,406.9z M435.2,371.9c30.8-56.9,34-130,0-193.4c-2.6-4.9-8.8-6.7-13.7-4.1
		c-4.9,2.6-6.7,8.8-4.1,13.7c29.5,54.6,29.5,119.7,0,174.3c-2.6,4.9-0.8,11,4.1,13.7C426.1,378.4,432.4,377.1,435.2,371.9
		L435.2,371.9z M477.8,403.2c45.6-79,45.6-177.1,0-256c-2.8-4.8-9-6.5-13.8-3.7c-4.8,2.8-6.5,9-3.7,13.8c42,72.7,42,163.1,0,235.9
		c-2.8,4.8-1.1,11,3.7,13.8C468.6,409.5,474.9,408.2,477.8,403.2L477.8,403.2z M255.9,458.6c-5.6,0-10.1,4.5-10.1,10.1
		c0,5.6,4.5,10.1,10.1,10.1s10.1-4.5,10.1-10.1C266,463.1,261.5,458.6,255.9,458.6z M365.9,215.7c-8.2,0-15.1,3.2-20.2,7.9V99.8
		c0-19.5-15.8-35.3-35.3-35.3c-5.4,0-10.5,1.2-15.1,3.4c-0.3-19.2-16-34.7-35.3-34.7c-19.2,0-34.9,15.5-35.3,34.7
		c-4.6-2.2-9.7-3.4-15.1-3.4c-19.5,0-35.3,15.8-35.3,35.3v18.5c-4.6-2.2-9.7-3.4-15.1-3.4c-19.5,0-35.3,15.8-35.3,35.3l0,229.4
		c0,54.2,42.2,91.4,85.4,96.1c7,0.8,11.1-4.2,11.4-9.5c0.3-5-3.4-9.9-8.8-10.5c-36.5-4-67.9-35.8-67.9-76.1l0-229.4
		c0-8.3,6.8-15.1,15.1-15.1c8.2,0,14.9,6.6,15.1,14.7V278c0,5.6,4.5,10.1,10.1,10.1c5.6,0,10.1-4.5,10.1-10.1V99.8
		c0-8.3,6.8-15.1,15.1-15.1s15.1,6.8,15.1,15.1v161.3c0,5.6,4.5,10.1,10.1,10.1c5.6,0,10.1-4.5,10.1-10.1V68.5
		c0-8.3,6.8-15.1,15.1-15.1c8.3,0,15.1,6.8,15.1,15.1V256c0,5.6,4.5,10.1,10.1,10.1c5.6,0,10.1-4.5,10.1-10.1V99.8
		c0-8.3,6.8-15.1,15.1-15.1c8.3,0,15.1,6.8,15.1,15.1v227.3c0,5.6,4.5,10.1,10.1,10.1s10.1-4.5,10.1-10.1v-50.3
		c0-13.2,4.1-25.8,11.9-36.5c6.1-8.4,18.3-3.9,18.3,5.6v81.3c0,35.3-10,69.8-28.8,99.7c-9.8,15.6-26.9,26.9-47.3,29
		c-6.5,0.7-9.3,6.9-8.7,11.3c0.7,5,5.1,9.3,11.3,8.7c25.1-2.7,47.9-16.2,61.7-38.2c20.8-33.1,31.9-71.3,31.9-110.4v-81.3
		C396.1,228.2,381.6,215.7,365.9,215.7L365.9,215.7z"/>
</g>
</svg>
