<?xml version="1.0" encoding="utf-8"?>
<!-- Generator: Adobe Illustrator 25.0.1, SVG Export Plug-In . SVG Version: 6.00 Build 0)  -->
<svg version="1.1" id="Layer_1" xmlns="http://www.w3.org/2000/svg" xmlns:xlink="http://www.w3.org/1999/xlink" x="0px" y="0px"
	 viewBox="0 0 512 512" style="enable-background:new 0 0 512 512;" xml:space="preserve">
<style type="text/css">
	.st0{fill:#444444;}
</style>
<g id="Page-1">
	<g id="_x30_21---Brain-Profile" transform="translate(0 -1)">
		<path id="Shape" class="st0" d="M67.4,226.3c-1.2,10.2-5.3,19.9-12,27.7c-26.8,28.9-34.5,38.9-33.5,49.2c1.5,7.2,6,13.3,12.4,16.8
			c2.8,1.9,5.8,3.7,8.9,5.1c3.7,1.9,9.8,5,10.2,7.3c0.6,2.9,0.2,5.9-0.9,8.6c-1.3,2.7-2.6,5-3.7,7c-3.3,5.9-8.3,14.8-0.5,21.4
			c1.8,1.6,5,4.1,7.9,6.3c-2.1,3.8-3.1,8.1-2.7,12.4c0.5,3.3,2.3,6.3,5,8.3c1.9,1.4,3.9,2.6,6,3.7c5,2.9,7,4.2,7.6,6.8
			c0.6,3.2,0.4,6.6-0.7,9.7c-2.8,10-2.4,20.7,1.4,30.4c4.4,16.2,20.7,26.1,37.1,22.6c24.3-5.9,48.3-13.1,71.8-21.5
			c11.8,7,23,24.1,31,47.6C216.2,506,226,513,236.9,513H409c8.9,0,17.1-4.6,21.7-12.1s5.1-16.9,1.2-24.9
			c-10.7-23.7-17.3-49-19.6-74.9c-3-25.5,0.8-51.4,11.1-74.9c6.1-12.7,13.7-24.7,22.6-35.8c16.9-22.8,36-48.6,36.6-92.6
			c0.5-24.5-2.5-48.9-8.9-72.5c-8.6-29.3-26.4-55.1-50.9-73.4C355.5-1,297.6-10.7,193.2,13.4c-28.3,6.5-60.4,16.5-83.5,41
			c-15.1,16-26.7,35-34.1,55.7c-3.2,9.1-5.7,18.5-7.7,27.9l-0.7,3c-1.9,6.9-4.4,13.6-7.5,20c-4.5,7.8-7,16.6-7,25.6
			c1.7,7.6,6.1,14.4,12.4,19c4.2,3.8,6.9,6.5,6.9,9c-0.4,1.4-0.9,2.7-1.6,4C69,221,68,223.6,67.4,226.3L67.4,226.3z M331.1,248.3
			c-0.7-2.2-2.2-4-4.2-5s-4.3-1.3-6.5-0.6c-4.8,1.5-9.7,2.4-14.7,2.7c-9.6,0.8-19.3-0.7-28.3-4.3c-3.4-1.2-7.1-0.3-9.6,2.4
			c-12.4,14.2-33.7,16.6-48.9,5.5c-15.3-11.1-19.6-32-10-48.2c2.4-4,1.1-9.3-2.9-11.7s-9.3-1.1-11.7,2.9c-2,3.5-3.7,7.1-4.9,11
			c-6.7-0.4-12-5.8-12.2-12.6v-0.2c0-2.3-0.9-4.4-2.5-6s-3.8-2.5-6-2.4c-4.7,0-8.5,3.9-8.5,8.6c0,15.1,11.4,27.8,26.5,29.4
			c0,2.9,0.3,5.7,0.8,8.5c-19.1,4.1-38.8-2.7-51.2-17.8c-12.4-15-15.4-35.7-7.8-53.6c1.9,1.9,4,3.6,6.4,5.1c2.6,1.6,5.9,1.6,8.5,0.2
			s4.3-4.3,4.4-7.3c0.1-3-1.5-5.9-4.1-7.5c-3.6-2.2-6.4-5.6-7.7-9.6c-0.7-1.9-1-3.9-1-5.9c0-9.9,8-18,17.9-18c5.7,0,11,2.7,14.3,7.2
			c2.8,3.8,8.2,4.6,11.9,1.8c3.8-2.8,4.6-8.2,1.8-11.9c-5.8-7.7-14.6-12.7-24.2-13.7c2.5-12,13.1-20.5,25.3-20.5
			c1,0.1,2.1,0.2,3.1,0.3c-0.6,1.8-1.3,3.5-1.8,5.3c-1,4.5,1.8,8.9,6.2,10.1c4.4,1.1,9-1.4,10.3-5.8c1-3.7,2.4-7.3,4.4-10.6
			c7.6-12.7,21.2-20.5,36-20.6c8,0,15.9,2.4,22.6,6.8c-1.3,3.6-1.9,7.4-2,11.2c0,3,1.6,5.9,4.3,7.4c2.6,1.5,5.9,1.5,8.5,0
			s4.3-4.3,4.3-7.4c0-6.4,3.4-12.3,9-15.5s12.4-3.2,17.9,0s9,9.1,9,15.5c0,4.7,3.8,8.5,8.5,8.5s8.5-3.8,8.5-8.5
			c0-0.7-0.2-1.3-0.2-1.9c24.4,1.5,45,18.9,50.5,42.7c-4,1.2-7.7,3-11,5.5c-3.8,2.8-4.5,8.2-1.7,11.9s8.2,4.5,11.9,1.7
			c6.8-5,16.2-4.6,22.6,1s7.9,14.9,3.8,22.3c-1.9,3.3-4.7,5.9-8.1,7.5c-4.3,2-6.1,7.1-4.1,11.4c2,4.3,7.1,6.1,11.4,4.1
			c2.3-1.1,4.4-2.4,6.4-4c4.4,12.6,1.6,26.5-7.3,36.4l-0.2,0.2c-11.1,12.1-28.9,15.3-43.6,8c-1.4-0.8-2.8-1.6-4.1-2.6
			c6.3-8.8,7.2-20.4,2.3-30c-1.4-2.7-4.1-4.5-7.1-4.7s-6,1.3-7.6,3.8c-1.7,2.5-1.9,5.8-0.5,8.5c2.8,5.6,1.1,12.5-4.1,16.1
			c-3,2-6.8,2.7-10.3,1.8s-6.5-3.3-8.2-6.5c-1.3-2.9-4-4.8-7.2-5s-6.1,1.3-7.8,3.9c-1.7,2.6-1.8,6-0.3,8.7
			c6.8,13.8,23,20.1,37.3,14.4c3.1,2.7,6.4,5,10,6.8c12.2,6.3,26.3,7.6,39.4,3.6c-8.4,11.5-21.1,19.3-35.1,21.6
			c-4.4,0.7-7.5,4.7-7.2,9.1s4.1,7.9,8.5,7.9c0.5,0,0.9,0,1.4-0.1c5.2-0.9,10.3-2.4,15.1-4.4c2.6,4.7,4.8,9.6,6.4,14.7
			c0.3,0.9,0.4,1.8,0.4,2.7c0,3.7-2.2,7-5.6,8.5c-3.9,1.5-8.4,0.3-11-3c-6.6-7.8-15.3-13.5-25-16.6c-18.4-6.2-25.6-11.7-28.6-17.7
			c4.4-0.6,8.8-1.5,13.1-2.7c2.2-0.7,4-2.2,5.1-4.2C331.5,252.8,331.7,250.5,331.1,248.3L331.1,248.3z M340.3,351.5
			c0.6-3.6,1.4-7.3,2.2-11c3.3-12.9,4.6-26.2,3.9-39.5c2.4,1.7,4.6,3.7,6.5,6c3.9,4.6,9.3,7.8,15.2,9.1c-0.8,7-2,14-3.6,20.9
			c-0.9,3.9-1.6,7.7-2.3,11.5c-9.4,52.3,4.8,103,20.7,147.3h-20.6C346.4,452.3,331.2,402.1,340.3,351.5L340.3,351.5z M76.5,193
			c-3.4-3.2-6.7-6.1-7.1-8.8c1-5.7,3-11.2,5.7-16.3c3.6-7.4,6.5-15.2,8.6-23.1l0.7-3c1.8-8.8,4.2-17.4,7.1-25.9
			c6.7-18.6,17.1-35.6,30.5-50c20-21,47.9-29.7,75.1-35.9c111.3-25.7,159.8-8.2,215.2,35.4c21.7,16,37.5,38.7,45,64.6
			c6,22,8.7,44.8,8.3,67.6c-0.5,38.5-16.4,60-33.3,82.8c-9.6,12.1-17.8,25.2-24.5,39.1c-11.5,26.3-15.8,55.3-12.4,83.8
			c2.5,27.9,9.8,55.1,21.3,80.6c1.3,2.6,1.1,5.7-0.5,8.2s-4.3,4-7.2,4h-7.9c-15.9-43.6-31.1-93.8-22.1-144.4c0.6-3.6,1.4-7.3,2.2-11
			c2-8.8,3.4-17.8,4.1-26.8c8.7-4.5,14.2-13.5,14.2-23.3c0-2.7-0.4-5.5-1.3-8.1c-1.9-6-4.4-11.9-7.5-17.4
			c14.5-10.4,24.6-25.9,28.3-43.4c14.6-17.3,16.5-42,4.7-61.3c3.7-9.5,3-20.2-1.9-29.2s-13.4-15.4-23.4-17.5
			c-6.4-34.2-36.1-59.1-70.9-59.3c-0.9,0-1.6,0.1-2.4,0.1c-5.6-8.7-14.7-14.5-25-15.8s-20.6,2.1-28.1,9.2
			c-9.5-6.2-20.5-9.5-31.9-9.5c-18.2,0.1-35.4,8.5-46.6,22.9c-12.4-3.6-25.8-1.4-36.3,6s-17.2,19.3-18,32.2
			c-15.7,6.4-24.4,23.2-20.6,39.6c-7.4,11.2-11.4,24.4-11.5,37.9c-0.1,21.3,9.6,41.5,26.4,54.7c16.7,13.2,38.6,18,59.3,12.9
			c7.8,14.7,22,25,38.4,27.8s33.2-2.3,45.4-13.6c5.8,1.8,11.8,3,17.8,3.5c3.7,13.7,13.4,22.6,32.7,30.2c3.5,14.7,3,30.1-1.5,44.6
			c-0.8,3.9-1.6,7.7-2.3,11.5c-9.3,52.3,4.9,103,20.7,147.3H236.9c-3.7,0-7-2.4-8.1-5.9c-5.6-18.1-15.1-34.7-28-48.6l6.4-2.2
			c6.3-2.2,11.1-3.9,13.4-4.6c36.5-11.5,54.8-28.1,54.3-49.4c0-2.3-0.9-4.5-2.6-6c-1.6-1.6-3.9-2.4-6.1-2.3c-2.3,0.1-4.4,1-6,2.6
			s-2.4,3.8-2.4,6.1c0.2,8.8-7,21.6-42.3,32.8c-2.5,0.8-7.4,2.5-14,4.8c-6.1,2.2-13.7,4.8-22,7.7h-0.1c-24,8.7-48.4,16.1-73.1,22.1
			c-8,1.5-15.7-3.6-17.5-11.5c-2.7-6.7-3-14-0.9-20.9c1.8-5.7,2-11.8,0.6-17.7c-2.4-7.8-8.2-14.2-15.7-17.5l-1.8-1
			c0.9-1.9,2-3.6,3.3-5.3c1.4-1.8,2-4.1,1.7-6.4s-1.5-4.3-3.4-5.7c-2-1.5-6.9-5.2-10.4-8c0.4-0.8,0.9-1.7,1.4-2.5
			c1.3-2.3,2.8-5,4.3-8c2.7-6,3.5-12.6,2.3-19.1c-2-10.5-11.9-15.6-19.3-19.3c-2.2-1.1-4.4-2.3-6.4-3.6c-2-1.4-3.9-2.9-5.6-4.6
			c0.1-4.9,18.9-25.2,29-36.1c9-10.3,14.7-23,16.3-36.5c0.4-1,0.8-1.9,1.3-2.9c2.1-3.6,3.3-7.7,3.5-11.9
			C88.2,205.8,83.6,198,76.5,193L76.5,193z"/>
		<path id="Shape_1_" class="st0" d="M328.9,151c0.6-3-0.4-6.1-2.7-8.2c-2.3-2-5.6-2.7-8.5-1.6c-2.9,1-5,3.6-5.6,6.6
			c-1.7,8.8-6.8,16.6-14.1,21.7c-14.2,9.6-33.2,7.4-44.9-5.1c-3.2-3.5-8.6-3.8-12.1-0.6s-3.8,8.6-0.6,12.1
			c7.2,8,16.8,13.5,27.3,15.8c-4.8,6.7-12.5,10.7-20.8,10.7c-4.7,0-8.5,3.8-8.5,8.5s3.8,8.5,8.5,8.5c17.7,0.1,33.6-10.8,39.8-27.4
			C307.9,188.5,324.7,172.2,328.9,151L328.9,151z"/>
		<path id="Shape_2_" class="st0" d="M250.5,115.3c0-4.7-3.8-8.5-8.5-8.5c-21.7,0-39.2,17.6-39.3,39.3c0,4.7,3.8,8.5,8.5,8.5
			s8.5-3.8,8.5-8.5c0-12.3,9.9-22.2,22.2-22.2C246.7,123.8,250.5,120,250.5,115.3z"/>
	</g>
</g>
</svg>
