<?xml version="1.0" encoding="utf-8"?>
<!-- Generator: Adobe Illustrator 25.0.1, SVG Export Plug-In . SVG Version: 6.00 Build 0)  -->
<svg version="1.1" id="Layer_1" xmlns="http://www.w3.org/2000/svg" xmlns:xlink="http://www.w3.org/1999/xlink" x="0px" y="0px"
	 viewBox="0 0 512 512" style="enable-background:new 0 0 512 512;" xml:space="preserve">
<style type="text/css">
	.st0{fill:#BD0D0D;}
</style>
<g>
	<path class="st0" d="M315.1,148.1c0-32.6-26.5-59.1-59.1-59.1s-59.1,26.5-59.1,59.1s26.5,59.1,59.1,59.1
		C288.6,207.2,315.1,180.7,315.1,148.1z M210.9,148.1c0-24.9,20.2-45.1,45.1-45.1s45.1,20.2,45.1,45.1s-20.2,45.1-45.1,45.1
		C231.1,193.2,210.9,173,210.9,148.1z"/>
	<path class="st0" d="M493.3,484.3l-57.1-149.6c-1-2.7-3.6-4.5-6.5-4.5h-108c0.7-1.1,1.3-2.1,2-3.2c41.6-68.8,62.5-129,62.2-178.9
		c0-71.7-58.1-129.9-129.8-129.9S126.2,76.3,126.2,148c-0.3,49.9,20.6,110.1,62.2,178.9c0.7,1.1,1.3,2.1,2,3.2h-108
		c-2.9,0-5.5,1.8-6.5,4.5L18.7,484.3c-1.4,3.6,0.4,7.6,4,9c0.8,0.3,1.7,0.5,2.5,0.5h461.5c3.9,0,7-3.1,7-7
		C493.8,485.9,493.6,485.1,493.3,484.3L493.3,484.3z M140.1,148.1c0-64,51.9-115.8,115.9-115.8s115.8,51.9,115.8,115.9l0,0
		c0.6,99.4-92.4,222.1-115.9,251.5C232.5,370.2,139.5,247.6,140.1,148.1L140.1,148.1z M250.7,415.2c2.5,2.9,6.9,3.3,9.9,0.8
		c0.3-0.2,0.6-0.5,0.8-0.8c18.6-22.6,35.8-46.4,51.6-71h111.9l9,23.5l-218.8,77.8l-78-101.3h62C214.8,368.8,232.1,392.6,250.7,415.2
		L250.7,415.2z M214.8,460.4L214.8,460.4L345.4,414l50.6,65.8H160.4L214.8,460.4z M87.1,344.2h32.3l81.8,106.2l-82.6,29.4H35.4
		L87.1,344.2z M413.7,479.8L359.2,409l79.6-28.3l37.8,99L413.7,479.8L413.7,479.8z"/>
</g>
</svg>
