<?xml version="1.0" encoding="utf-8"?>
<!-- Generator: Adobe Illustrator 25.0.1, SVG Export Plug-In . SVG Version: 6.00 Build 0)  -->
<svg version="1.1" id="Capa_1" xmlns="http://www.w3.org/2000/svg" xmlns:xlink="http://www.w3.org/1999/xlink" x="0px" y="0px"
	 viewBox="0 0 512 512" style="enable-background:new 0 0 512 512;" xml:space="preserve">
<style type="text/css">
	.st0{fill:#BD0D0D;}
</style>
<g>
	<g>
		<path class="st0" d="M492.4,104.5c-19.6-27-54-51.4-96.9-68.7c-42.6-17.1-92-26.6-139.3-26.7C209,9,159.5,18.4,116.9,35.4
			C74,52.6,39.5,76.9,19.8,103.8C0.8,129.7-4.6,157.7,4,184.6c5.6,17.5,21.9,29.2,40.6,29.2l64,0.1c0,0,0,0,0.1,0
			c12.8,0,24.7-5.6,32.9-15.3c8.1-9.6,11.4-22.2,9.2-34.5c-0.1-0.4-0.1-0.7-0.2-1.1l-3.4-13.1c18.6-8.9,60.9-26.1,109.1-25.8
			c48.2,0.2,90.4,17.4,109,26.3l-3.4,13c-0.1,0.4-0.2,0.7-0.2,1.1c-2.3,12.3,1,24.9,9.1,34.6c8.1,9.8,20.1,15.4,32.9,15.4l64,0.1
			c0,0,0,0,0.1,0c18.6,0,34.9-11.7,40.6-29.1C516.7,158.5,511.3,130.5,492.4,104.5z M478.9,176c-1.5,4.7-6.2,8-11.5,8l0,0l-64-0.1
			c-3.7,0-7.1-1.6-9.4-4.4c-1.3-1.5-3.2-4.7-2.6-9l6.4-24.2c1.7-6.6-1.1-13.6-7.1-17.1c-2.5-1.4-61.3-35.3-134.5-35.7
			c-0.4,0-0.8,0-1.2,0c-72.7,0-131.1,33.7-133.6,35.2c-5.9,3.4-8.8,10.4-7.1,17l6.2,24.2c0.6,4.4-1.3,7.5-2.6,9.1
			c-2.3,2.8-5.8,4.4-9.4,4.4l0,0l-64-0.1c-5.3,0-10-3.3-11.5-8c-5.6-17.5-1.8-35.4,11.3-53.4C79.2,74.2,168,39.7,255.6,39.7
			c0.2,0,0.3,0,0.5,0c87.7,0.1,176.7,35,211.5,82.9C480.8,140.5,484.5,158.5,478.9,176z"/>
	</g>
</g>
<g>
	<g>
		<path class="st0" d="M400.6,279.8l-47.7-50.1c-2.9-3-6.9-4.7-11.1-4.7H311v-20.8c0-8.4-6.8-15.3-15.3-15.3
			c-8.4,0-15.3,6.8-15.3,15.3V225h-48.9v-20.8c0-8.4-6.8-15.3-15.3-15.3s-15.3,6.8-15.3,15.3V225h-30.8c-4.2,0-8.2,1.7-11.1,4.7
			l-47.7,50.1c-37.4,39.3-58,90.7-58,145v62.9c0,8.4,6.8,15.3,15.3,15.3h374.6c8.4,0,15.3-6.8,15.3-15.3v-62.9
			C458.6,370.5,438,319.1,400.6,279.8z M84,472.3v-47.6c0-46.3,17.6-90.3,49.6-123.9l43.2-45.3h158.6l43.2,45.3
			c32,33.6,49.6,77.6,49.6,123.9v47.6H84z"/>
	</g>
</g>
<g>
	<g>
		<path class="st0" d="M256,287.1c-44.1,0-80,35.9-80,80s35.9,80,80,80s80-35.9,80-80S300.1,287.1,256,287.1z M256,416.5
			c-27.2,0-49.4-22.2-49.4-49.4c0-27.2,22.2-49.4,49.4-49.4s49.4,22.2,49.4,49.4S283.2,416.5,256,416.5z"/>
	</g>
</g>
</svg>
