<?xml version="1.0" encoding="utf-8"?>
<!-- Generator: Adobe Illustrator 25.0.1, SVG Export Plug-In . SVG Version: 6.00 Build 0)  -->
<svg version="1.1" id="Layer_1" xmlns="http://www.w3.org/2000/svg" xmlns:xlink="http://www.w3.org/1999/xlink" x="0px" y="0px"
	 viewBox="0 0 512 512" style="enable-background:new 0 0 512 512;" xml:space="preserve">
<style type="text/css">
	.st0{fill:#444444;}
</style>
<g id="outline">
	<path class="st0" d="M471.8,199.5l-9.2-9.2c12.2-27.3,14.9-57.9,7.7-86.9c-14.8-59.2-74.8-95.2-134-80.4
		c-24.6,6.2-46.4,20.6-61.6,40.9l-19.1,25.5l-19.1-25.5C199.9,15.1,130.7,5.2,81.8,41.8c-20.3,15.2-34.7,37-40.9,61.6
		c-10.7,42.7,0.4,87.9,29.6,120.8l-3.2,3.5c0,0-0.1,0.1-0.1,0.1c-29.8,34.1-26.4,85.9,7.7,115.7c0.2,0.2,0.5,0.4,0.7,0.6l76,65
		c0,7,3,13.6,8.3,18.2c4.3,3.7,9.9,5.8,15.6,5.8c0.2,0,0.3,0,0.5,0c0.8,5.9,3.7,11.2,8.2,15.1c4.3,3.7,9.9,5.8,15.6,5.8
		c0.2,0,0.3,0,0.5,0c1.6,11.9,11.7,20.9,23.8,20.9c0.2,0,0.3,0,0.5,0c1.6,11.9,11.7,20.9,23.8,20.9c3.3,0,6.5-0.7,9.5-1.9
		c12.7,4.9,27.1,1.7,36.6-8.1l52.6-54.5l122.9-114c32.9-31.1,34.5-83,3.4-115.9C472.9,200.6,472.3,200,471.8,199.5L471.8,199.5z
		 M56.5,107.3C69.1,56.7,120.4,25.9,171,38.6c21.1,5.3,39.7,17.6,52.7,35l25.5,34c2.7,3.5,7.7,4.3,11.2,1.6c0.6-0.5,1.1-1,1.6-1.6
		l25.5-34c31.3-41.7,90.5-50.2,132.3-18.9c17.4,13,29.7,31.6,35,52.7c7.9,31.6,2.3,65-15.4,92.3L328.1,304h-55.8
		c-7.4,0-14.6,2.9-19.8,8.2l-2.5,2.5c-2.7-0.8-5.5-1.3-8.3-1.3H195L87,218.4C58.2,189.1,46.7,147.1,56.5,107.3L56.5,107.3z
		 M170.5,415.2c-3.3-2.9-3.7-7.9-0.9-11.3l10.4-12.1c2.8-3.4,7.9-3.8,11.3-1c3.4,2.8,3.8,7.9,1,11.3c0,0-0.1,0.1-0.1,0.1l-10.4,12.1
		C178.9,417.7,173.9,418.1,170.5,415.2L170.5,415.2z M194.8,436.1c-3.3-2.9-3.7-7.9-0.9-11.3l10.4-12.1c2.9-3.4,7.9-3.8,11.3-0.9
		c3.4,2.9,3.8,7.9,0.9,11.3c0,0,0,0,0,0l-10.4,12.1C203.2,438.6,198.1,438.9,194.8,436.1L194.8,436.1z M219,456.9
		c-3.4-2.9-3.7-7.9-0.9-11.3l10.4-12.1c2.9-3.4,7.9-3.7,11.3-0.9c3.4,2.9,3.7,7.9,0.9,11.3l-10.4,12.1
		C227.4,459.4,222.4,459.8,219,456.9C219,456.9,219,456.9,219,456.9L219,456.9z M243.3,477.8c-3.4-2.9-3.7-7.9-0.9-11.3c0,0,0,0,0,0
		l10.4-12.1c2.8-3.4,7.9-3.8,11.3-1s3.8,7.9,1,11.3c0,0-0.1,0.1-0.1,0.1l-10.4,12.1C251.7,480.3,246.7,480.7,243.3,477.8
		L243.3,477.8z M283,474.5c-2.6,2.7-6,4.5-9.8,5.2l3.9-4.5c8.6-10,7.5-25.2-2.5-33.8c-4.5-3.9-10.2-5.9-16.2-5.8
		c-1.6-12.1-12-21.1-24.3-20.9c-1.6-12.1-12.1-21.1-24.3-20.9c-1.7-13.1-13.8-22.4-26.9-20.7c-5.9,0.8-11.2,3.7-15.1,8.2l-10.2,11.9
		L86.1,332c-27.7-23.7-31-65.3-7.3-93.1c0.2-0.2,0.3-0.4,0.5-0.5l2.8-3.1l104.7,92.1c1.5,1.3,3.3,2,5.3,2h43.3l-8.4,8.4
		c-7.8,7.8-7.8,20.5,0,28.3l1.3,1.3c5.2,5.3,12.4,8.2,19.8,8.2h0c7.4,0,14.6-3,19.8-8.2l0,0l62.3,58.3L283,474.5z M459.1,305.4
		L341.6,414.5l-21.1-19.7l13.1-13.1c3.1-3.1,3.1-8.2,0-11.3s-8.2-3.1-11.3,0l-13.5,13.5l-29.7-27.8l1.4-1.4
		c11.4,8.1,25.9,10.9,39.5,7.5l10-2.5c4.3-1.1,6.9-5.5,5.8-9.7c-1.1-4.2-5.4-6.8-9.6-5.8l-10,2.5c-10.9,2.7-22.5-0.5-30.4-8.5
		c-1.5-1.5-3.5-2.4-5.7-2.4h0c-2.1,0-4.2,0.8-5.7,2.4l-17.9,17.9c-2.2,2.3-5.3,3.5-8.5,3.5h0c-3.2,0-6.2-1.3-8.5-3.5l-1.3-1.3
		c-1.6-1.6-1.6-4.1,0-5.7l25.7-25.7c2.2-2.3,5.3-3.5,8.5-3.5h58.9c2,0,4-0.8,5.5-2.2l114.4-107.3c0,0,0.1-0.1,0.1-0.1l4.6-4.3
		l4.6,4.6c25.8,25.8,25.8,67.6,0,93.3C460,304.6,459.6,305,459.1,305.4L459.1,305.4z"/>
	<path class="st0" d="M320,280c2,0,3.9-0.7,5.4-2.1l8.9-8c3.3-2.9,3.7-7.9,0.8-11.3c-2.9-3.3-7.9-3.7-11.3-0.8
		c-0.1,0.1-0.2,0.1-0.2,0.2l-8.9,8c-3.3,3-3.5,8-0.6,11.3C315.6,279,317.7,280,320,280L320,280z"/>
	<path class="st0" d="M352,251.2c2,0,3.9-0.7,5.4-2.1l32-28.8c3.2-3,3.4-8.1,0.4-11.3c-2.9-3.1-7.8-3.4-11.1-0.6l-32,28.8
		c-3.3,3-3.5,8-0.6,11.3C347.6,250.2,349.7,251.2,352,251.2z"/>
</g>
</svg>
