<?xml version="1.0" encoding="utf-8"?>
<!-- Generator: Adobe Illustrator 25.0.1, SVG Export Plug-In . SVG Version: 6.00 Build 0)  -->
<svg version="1.1" id="Layer_1" xmlns="http://www.w3.org/2000/svg" xmlns:xlink="http://www.w3.org/1999/xlink" x="0px" y="0px"
	 viewBox="0 0 512 512" style="enable-background:new 0 0 512 512;" xml:space="preserve">
<style type="text/css">
	.st0{fill:#FFFFFF;}
</style>
<path class="st0" d="M294.5,309.7c-0.7,0-1.3-0.1-2-0.2c-0.6-0.1-1.3-0.3-1.9-0.6c-0.6-0.3-1.2-0.6-1.7-0.9
	c-0.6-0.4-1.1-0.8-1.5-1.2c-0.5-0.5-0.9-1-1.2-1.5c-0.4-0.5-0.7-1.1-0.9-1.7c-0.3-0.6-0.4-1.2-0.6-1.9c-0.1-0.6-0.2-1.3-0.2-1.9
	s0.1-1.3,0.2-2c0.1-0.6,0.3-1.3,0.6-1.9c0.3-0.6,0.6-1.2,0.9-1.7c0.4-0.6,0.8-1.1,1.2-1.5c2.3-2.3,5.8-3.4,9-2.7
	c0.6,0.1,1.3,0.3,1.9,0.6c0.6,0.3,1.2,0.6,1.7,0.9c0.6,0.4,1.1,0.8,1.5,1.3c0.5,0.5,0.9,1,1.3,1.5s0.7,1.1,0.9,1.7
	c0.3,0.6,0.4,1.2,0.6,1.9c0.1,0.7,0.2,1.3,0.2,2s-0.1,1.3-0.2,1.9s-0.3,1.3-0.6,1.9c-0.3,0.6-0.6,1.2-0.9,1.7
	c-0.4,0.6-0.8,1.1-1.3,1.5s-1,0.9-1.5,1.2c-0.5,0.4-1.1,0.7-1.7,0.9c-0.6,0.3-1.2,0.4-1.9,0.6C295.8,309.6,295.2,309.7,294.5,309.7z
	"/>
<path class="st0" d="M256.1,337.6c-1.9,0-3.9-0.6-5.6-1.8c-6.9-4.8-68.3-47.2-81.5-67.2c-5.5-8.3-12.6-21.4-11.6-39.8
	c0.8-14.4,6.9-27.9,17.1-38c10.5-10.3,24.2-16,38.6-16c19.2,0,34.4,12.1,43.1,21.3c8.9-9.1,24.3-21.3,42.8-21.3
	c14.4,0,28.1,5.7,38.6,16c10.3,10.1,16.4,23.7,17.2,38c1,18.4-6.1,31.5-11.6,39.8c-3,4.6-9.2,5.9-13.8,2.9c-4.6-3-5.9-9.2-2.9-13.8
	c6.4-9.7,8.9-18,8.3-27.8c-1-19.4-17.1-35.1-35.7-35.1c-18.4,0-34.6,22.4-34.8,22.6c-1.9,2.7-5,4.3-8.3,4.2c-3.3,0-6.4-1.7-8.2-4.5
	c-0.1-0.2-15.3-22.4-34.6-22.4c-18.7,0-34.7,15.8-35.7,35.1c-0.5,9.8,2,18.1,8.3,27.8c8.3,12.6,51.1,44.6,76.1,61.7
	c4.6,3.1,5.7,9.4,2.6,13.9C262.4,336.1,259.3,337.6,256.1,337.6z"/>
<path class="st0" d="M512,256.2c0-32.5-20.8-60.2-49.8-70.5c-17.2-47.4-51.1-86.8-95.6-111.1c-15.9-8.7-34.7-8.3-50.3,0.9
	c-15.7,9.3-25.1,25.8-25.1,44.1c0,5.5,4.5,10,10,10s10-4.5,10-10c0-11.1,5.7-21.2,15.3-26.9c9.5-5.6,20.9-5.8,30.5-0.6
	c36.7,20.1,65.4,51.4,81.9,89.3c-0.6,0-1.2,0-1.8,0c-12.2,0-23.8,2.9-33.9,8.2c-6.8-13.7-16-26.4-27.9-38.6
	c-3.9-3.9-10.2-4-14.1-0.2c-3.9,3.9-4,10.2-0.2,14.1c11.2,11.4,19.6,23.3,25.5,36.2c-14.9,13.7-24.2,33.3-24.2,55
	c0,21.6,9.2,41.1,23.9,54.8c-14.1,30.4-39.8,54.7-71.1,66.9c-14.6,5.7-24.1,19.6-24.1,35.4c0,12.6,6.2,24.4,16.6,31.5
	c6.4,4.4,13.9,6.6,21.5,6.6c4.7,0,9.5-0.9,14-2.7c55.4-21.8,98.6-66.2,118.9-122.1C491.2,316.4,512,288.7,512,256.2z M336,430.1
	c-5.7,2.2-11.9,1.6-16.9-1.9c-5-3.4-7.9-8.9-7.9-14.9c0-7.4,4.6-14.1,11.4-16.8c34.9-13.7,63.8-40.3,80.3-73.9
	c10.3,5.3,21.9,8.3,34.3,8.3c0.6,0,1.2,0,1.8,0C419.2,376.2,382.3,411.9,336,430.1z M437.2,311c-30.2,0-54.8-24.6-54.8-54.8
	s24.6-54.8,54.8-54.8c30.2,0,54.8,24.6,54.8,54.8S467.4,311,437.2,311z"/>
<path class="st0" d="M196.7,134.5c14.6-5.7,24.1-19.6,24.1-35.4c0-12.6-6.2-24.4-16.6-31.5c-10.4-7.1-23.7-8.6-35.5-4
	c-55.4,21.8-98.6,66.2-118.9,122.1C20.8,196,0,223.7,0,256.2s20.8,60.2,49.8,70.5c17.2,47.4,51,86.8,95.6,111.1
	c7.7,4.2,16,6.3,24.4,6.3c9,0,17.9-2.4,26-7.2c15.7-9.3,25.1-25.8,25.1-44.1c0-5.5-4.5-10-10-10s-10,4.5-10,10
	c0,11.1-5.7,21.2-15.3,26.9c-9.5,5.6-20.9,5.8-30.6,0.6c-36.8-20.1-65.4-51.4-82-89.3c0.6,0,1.2,0,1.8,0c12.4,0,24-3,34.3-8.3
	c7,14.3,16.3,27.3,27.5,38.8c2,2,4.6,3,7.2,3c2.5,0,5-0.9,7-2.8c3.9-3.9,4-10.2,0.2-14.1c-10.5-10.8-19-23-25.2-36.5
	c14.7-13.7,23.9-33.2,23.9-54.8s-9.2-41.1-23.9-54.8C139.8,171,165.4,146.8,196.7,134.5z M129.6,256.2c0,30.2-24.6,54.8-54.8,54.8
	S20,286.4,20,256.2s24.6-54.8,54.8-54.8C105,201.4,129.6,226,129.6,256.2z M109.1,189.8c-10.3-5.3-21.9-8.3-34.3-8.3
	c-0.6,0-1.2,0-1.8,0c19.8-45.2,56.7-80.9,103-99.2c5.7-2.2,11.9-1.6,16.9,1.9c5,3.4,7.9,8.9,7.9,14.9c0,7.4-4.6,14.1-11.4,16.8
	C154.4,129.6,125.7,156.2,109.1,189.8z"/>
</svg>
