<?xml version="1.0" encoding="utf-8"?>
<!-- Generator: Adobe Illustrator 23.0.1, SVG Export Plug-In . SVG Version: 6.00 Build 0)  -->
<svg version="1.1" id="Layer_1" xmlns="http://www.w3.org/2000/svg" xmlns:xlink="http://www.w3.org/1999/xlink" x="0px" y="0px"
	 viewBox="0 0 349 437" enable-background="new 0 0 349 437" xml:space="preserve">
<g>
	<defs>
		<rect id="SVGID_1_" x="-125" y="-201.9" width="595.3" height="841.9"/>
	</defs>
	<clipPath id="SVGID_2_">
		<use xlink:href="#SVGID_1_"  overflow="visible"/>
	</clipPath>
	<path clip-path="url(#SVGID_2_)" fill="#FFFFFF" d="M321.8,136.2l0.7-1.2L289,101.5V88.3l-30.6-33.9l-3.8-10.8l-3.8,10.9h0
		l-20.3,20.6l-24.7-11.3l8.6-9.7l-38.2-27l-3.8-10.8v-0.1l0,0l0,0v0.1l-3.8,10.8l-38.1,27l8.6,9.7l-24.7,11.3L94,54.5h0l-3.8-10.9
		l-3.8,10.8L55.8,88.3v13.2L22.3,135l0.7,1.2c0.1,0.2,13.5,22.4,16.9,42.1c3.6,20.8,3.9,50.1,0.9,68.1c-1.9,11.3-7.8,50-2,73.8
		c4.8,19.7,10.7,34.8,43,50c2.7,1.3,5.6,2.6,8.6,4c29.6,13.8,70.1,32.8,80.8,45.7l1.3,1.5v0l0,0l0,0v0l1.3-1.5
		c10.7-12.9,51.2-31.9,80.8-45.7c3-1.4,5.9-2.7,8.6-4c32.3-15.2,38.2-30.3,43-50c5.8-23.7-0.1-62.5-2-73.8
		c-3.1-18-2.7-47.3,0.9-68.1C308.3,158.6,321.7,136.4,321.8,136.2"/>
	<path clip-path="url(#SVGID_2_)" fill="#D2232A" d="M283.5,180.9c3-18.6,14.3-43.7,14.3-43.7l-28-28V97H261v-7.3h3.1l4.1-4.4
		l-12.7-13.2h0l-1-3.3l-1,3.3h0l-12.7,13.2l4.1,4.4h3.1V97h-6.1c-6.9-6.1-20-11.4-35.6-14.4c-0.1,0-0.1,0-0.2,0v-3.9h-9.7v-2.8h-9.5
		v-3.1h-8.1V69h3.1l8.2-8.3l-16.7-13.2h0l-1-7.4l-1,7.4h0l-16.7,13.2l8.2,8.3h3.1v3.8h-8.1v3.1h-9.5v2.8h-9.7v3.9
		c-15.1,2.9-28.2,8.5-35.2,14.4h-6.1v-7.3h3.1l4.1-4.4L91.8,71.9h0l-1-3.3l-1,3.3h0L77.2,85.2l4.1,4.4h3.1V97H75v12.2h33.8h0.1h6
		v-5.1h6.1V101h6.1v-5.2c9.6-5.9,26.1-9.2,45.5-9.2c19.3,0,35.7,3.1,45.3,9v5.3h6.1v3.1h6.1v5.1h-58v290.9
		c10.3-13.3,51.6-29.7,78.1-42.8c26.5-13.1,32.1-25.9,36.4-44.7c4.3-18.8-1.1-51.4-3.9-68.9C279.9,226.3,280.5,199.4,283.5,180.9
		 M236.3,109.2V109c0.1,0.1,0.1,0.1,0.2,0.2H236.3z"/>
	<path clip-path="url(#SVGID_2_)" fill="#1C2D56" d="M121,104.1V101h6.1v-5.2c9.6-5.9,25.9-9.1,45.2-9.2l0.1-46.5l-1,7.3h0
		l-16.7,13.2l8.2,8.3h3.1v3.8h-8.1v3.1h-9.5v2.8h-9.7v3.9c-15.1,2.9-28.2,8.5-35.2,14.4h-6.1v-7.3h3.1l4.1-4.4L91.8,71.9h0l-1-3.3
		l-1,3.3h0L77.2,85.2l4.1,4.4h3.1V97h-9.8l0,12.2l-28,28c0,0,11.3,25.1,14.3,43.7c3,18.6,3.6,45.4,0.8,62.9
		c-2.8,17.5-8.3,50.1-3.9,68.9c4.3,18.8,9.9,31.5,36.4,44.7c26.5,13.1,67.8,29.5,78.1,42.8V109.2h-57.3v-5.1H121z"/>
	<path clip-path="url(#SVGID_2_)" fill="#FFFFFF" d="M92.5,286.3c4.1,0,6.2,2.1,6.2,6.2c0,1.6-0.3,2.9-0.9,3.9
		c0.6,1,0.9,2.3,0.9,3.9c0,4.1-2.1,6.2-6.2,6.2H81.7v-20.2H92.5z M94.1,292.5c0-1-0.5-1.5-1.6-1.5h-6.2v3.1h6.2
		C93.6,294.1,94.1,293.6,94.1,292.5 M92.5,301.8c1,0,1.6-0.5,1.6-1.6s-0.5-1.6-1.6-1.6h-6.2v3.1H92.5z"/>
	<rect x="101.8" y="286.3" clip-path="url(#SVGID_2_)" fill="#FFFFFF" width="4.7" height="20.2"/>
	<path clip-path="url(#SVGID_2_)" fill="#FFFFFF" d="M118.9,286.3c5.2,0,7.8,2.6,7.8,7.8c0,3.8-1.4,6.2-4.2,7.2l5.2,5.2H121
		l-6.8-6.8v6.8h-4.7v-20.2H118.9z M122,294.1c0-2.1-1-3.1-3.1-3.1h-4.7v6.2h4.7C121,297.2,122,296.2,122,294.1"/>
	<path clip-path="url(#SVGID_2_)" fill="#FFFFFF" d="M142.5,304.9h-8.4l-0.7,1.6h-5.1l10-22.4l10,22.4h-5.1L142.5,304.9z
		 M140.4,300.3l-2.1-4.8l-2.1,4.8H140.4z"/>
	<polygon clip-path="url(#SVGID_2_)" fill="#FFFFFF" points="157.7,291 157.7,306.5 153,306.5 153,291 146.8,291 146.8,286.3 
		163.9,286.3 163.9,291 	"/>
	<polygon clip-path="url(#SVGID_2_)" fill="#FFFFFF" points="171.6,295.9 171.6,306.5 167,306.5 167,284.8 179.4,297 179.4,286.3 
		184,286.3 184,308 	"/>
	<path clip-path="url(#SVGID_2_)" fill="#FFFFFF" d="M199.9,304.9h-8.4l-0.7,1.6h-5.1l10-22.4l10,22.4h-5.1L199.9,304.9z
		 M197.8,300.3l-2.1-4.8l-2.1,4.8H197.8z"/>
	<path clip-path="url(#SVGID_2_)" fill="#FFFFFF" d="M214.3,286.3h9.3v4.7h-9.3c-2.1,0-3.1,1-3.1,3.1v4.7c0,2.1,1,3.1,3.1,3.1h4.7
		v-7.8l4.7,3.1v9.3h-9.3c-5.2,0-7.8-2.6-7.8-7.8v-4.7C206.5,288.9,209.1,286.3,214.3,286.3"/>
	<path clip-path="url(#SVGID_2_)" fill="#FFFFFF" d="M238.7,304.9h-8.4l-0.7,1.6h-5.1l10-22.4l10,22.4h-5.1L238.7,304.9z
		 M236.6,300.3l-2.1-4.8l-2.1,4.8H236.6z"/>
	<path clip-path="url(#SVGID_2_)" fill="#FFFFFF" d="M255.4,286.3c5.2,0,7.8,2.6,7.8,7.8c0,3.8-1.4,6.2-4.2,7.2l5.2,5.2h-6.6
		l-6.8-6.8v6.8h-4.7v-20.2H255.4z M258.5,294.1c0-2.1-1-3.1-3.1-3.1h-4.7v6.2h4.7C257.5,297.2,258.5,296.2,258.5,294.1"/>
	<path clip-path="url(#SVGID_2_)" fill="#FFFFFF" d="M88.4,315.8c3.1,0,4.6,1.5,4.6,4.6h-2.8c0-1.2-0.6-1.8-1.8-1.8h-0.9
		c-1.2,0-1.8,0.6-1.8,1.8v2.8c0,1.2,0.6,1.8,1.8,1.8h0.9c1.2,0,1.8-0.6,1.8-1.8H93c0,3.1-1.5,4.6-4.6,4.6h-0.9
		c-3.1,0-4.6-1.5-4.6-4.6v-2.8c0-3.1,1.5-4.6,4.6-4.6H88.4z"/>
	<rect x="94.4" y="315.8" clip-path="url(#SVGID_2_)" fill="#FFFFFF" width="2.8" height="11.9"/>
	<polygon clip-path="url(#SVGID_2_)" fill="#FFFFFF" points="105.1,318.6 105.1,327.7 102.3,327.7 102.3,318.6 98.6,318.6 
		98.6,315.8 108.7,315.8 108.7,318.6 	"/>
	<polygon clip-path="url(#SVGID_2_)" fill="#FFFFFF" points="113.9,322.2 109.4,315.8 112.8,315.8 115.2,319.4 117.7,315.8 
		121.1,315.8 116.6,322.2 116.6,327.7 113.9,327.7 	"/>
	<polygon clip-path="url(#SVGID_2_)" fill="#FFFFFF" points="135.1,315.8 135.1,318.6 128.7,318.6 128.7,320.4 134.2,320.4 
		134.2,323.2 128.7,323.2 128.7,327.7 126,327.7 126,315.8 	"/>
	<path clip-path="url(#SVGID_2_)" fill="#FFFFFF" d="M136.6,320.4c0-3.1,1.5-4.6,4.6-4.6h0.9c3.1,0,4.6,1.5,4.6,4.6v2.8
		c0,3.1-1.5,4.6-4.6,4.6h-0.9c-3.1,0-4.6-1.5-4.6-4.6V320.4z M141.2,318.6c-1.2,0-1.8,0.6-1.8,1.8v2.8c0,1.2,0.6,1.8,1.8,1.8h0.9
		c1.2,0,1.8-0.6,1.8-1.8v-2.8c0-1.2-0.6-1.8-1.8-1.8H141.2z"/>
	<path clip-path="url(#SVGID_2_)" fill="#FFFFFF" d="M148.2,320.4c0-3.1,1.5-4.6,4.6-4.6h0.9c3.1,0,4.6,1.5,4.6,4.6v2.8
		c0,3.1-1.5,4.6-4.6,4.6h-0.9c-3.1,0-4.6-1.5-4.6-4.6V320.4z M152.7,318.6c-1.2,0-1.8,0.6-1.8,1.8v2.8c0,1.2,0.6,1.8,1.8,1.8h0.9
		c1.2,0,1.8-0.6,1.8-1.8v-2.8c0-1.2-0.6-1.8-1.8-1.8H152.7z"/>
	<polygon clip-path="url(#SVGID_2_)" fill="#FFFFFF" points="165.2,318.6 165.2,327.7 162.5,327.7 162.5,318.6 158.8,318.6 
		158.8,315.8 168.9,315.8 168.9,318.6 	"/>
	<path clip-path="url(#SVGID_2_)" fill="#FFFFFF" d="M176.8,315.8c2.4,0,3.7,1.2,3.7,3.7c0,0.9-0.2,1.7-0.6,2.3
		c0.4,0.6,0.6,1.3,0.6,2.3c0,2.4-1.2,3.7-3.7,3.7h-6.4v-11.9H176.8z M177.7,319.5c0-0.6-0.3-0.9-0.9-0.9h-3.7v1.8h3.7
		C177.4,320.4,177.7,320.1,177.7,319.5 M176.8,325c0.6,0,0.9-0.3,0.9-0.9c0-0.6-0.3-0.9-0.9-0.9h-3.7v1.8H176.8z"/>
	<path clip-path="url(#SVGID_2_)" fill="#FFFFFF" d="M189,326.8h-5l-0.4,0.9h-3l5.9-13.3l5.9,13.3h-3L189,326.8z M187.8,324.1
		l-1.3-2.8l-1.3,2.8H187.8z"/>
	<polygon clip-path="url(#SVGID_2_)" fill="#FFFFFF" points="193,315.8 195.8,315.8 195.8,325 202.2,325 202.2,327.7 193,327.7 	"/>
	<polygon clip-path="url(#SVGID_2_)" fill="#FFFFFF" points="203.6,315.8 206.4,315.8 206.4,325 212.8,325 212.8,327.7 203.6,327.7 
			"/>
	<path clip-path="url(#SVGID_2_)" fill="#FFFFFF" d="M224,315.8c3.1,0,4.6,1.5,4.6,4.6h-2.8c0-1.2-0.6-1.8-1.8-1.8h-0.9
		c-1.2,0-1.8,0.6-1.8,1.8v2.8c0,1.2,0.6,1.8,1.8,1.8h0.9c1.2,0,1.8-0.6,1.8-1.8h2.8c0,3.1-1.5,4.6-4.6,4.6h-0.9
		c-3.1,0-4.6-1.5-4.6-4.6v-2.8c0-3.1,1.5-4.6,4.6-4.6H224z"/>
	<polygon clip-path="url(#SVGID_2_)" fill="#FFFFFF" points="230,315.8 232.8,315.8 232.8,325 239.2,325 239.2,327.7 230,327.7 	"/>
	<path clip-path="url(#SVGID_2_)" fill="#FFFFFF" d="M240.7,323.2v-7.3h2.8v7.3c0,1.2,0.6,1.8,1.8,1.8h0.9c1.2,0,1.8-0.6,1.8-1.8
		v-7.3h2.8v7.3c0,3.1-1.5,4.6-4.6,4.6h-0.9C242.2,327.7,240.7,326.2,240.7,323.2"/>
	<path clip-path="url(#SVGID_2_)" fill="#FFFFFF" d="M258.7,315.8c2.4,0,3.7,1.2,3.7,3.7c0,0.9-0.2,1.7-0.6,2.3
		c0.4,0.6,0.6,1.3,0.6,2.3c0,2.4-1.2,3.7-3.7,3.7h-6.4v-11.9H258.7z M259.6,319.5c0-0.6-0.3-0.9-0.9-0.9H255v1.8h3.7
		C259.3,320.4,259.6,320.1,259.6,319.5 M258.7,325c0.6,0,0.9-0.3,0.9-0.9c0-0.6-0.3-0.9-0.9-0.9H255v1.8H258.7z"/>
	<polygon clip-path="url(#SVGID_2_)" fill="#FFFFFF" points="273.5,167.7 267.2,184.6 227.6,185 227.6,204.1 259.8,204.1 
		253.2,221.4 227.6,221.4 227.6,256.1 207.9,256.1 207.9,167.6 	"/>
	<path clip-path="url(#SVGID_2_)" fill="#FFFFFF" d="M204.1,237.9l-0.8-1.8c-4.2,2.1-10.8,4.6-15.9,4.6c-7.5,0-13.8-2.6-19.1-7.9
		c-5.2-5.2-7.9-12.2-7.9-20.9c0-8.7,2.8-15.6,8.3-20.7c5.6-5.1,12.2-7.7,20.1-7.7c4.1,0,7.8,0.7,11.3,2.1c0.3,0.1,3.2,1.8,3.5,1.9
		l3.9-20.1c-6-2.5-12.6-3.8-19.6-3.8c-13.7,0-25.3,4.6-34.7,13.9c-0.7,0.7-1.5,1.5-2.1,2.2c0,0,0,0,0,0c-2,2.2-4,4.8-5.7,7.6
		c0,0,0.8-4.6,4.6-9.9c-0.9-1.8-2.1-3.5-3.5-5.1c-2.4-2.7-6-4.8-10.7-6.3c-4.7-1.6-10.4-2.3-16.9-2.3H81.3v96.4h42.2
		c13.2,0,22.5-3,27.9-9c0.4-0.5,0.9-1,1.3-1.5c-5.1-5.8-6.3-11.2-6.3-11.2c3.5,5.3,8.3,9.7,11.6,12.3c8.4,6.2,18.6,9.4,30.5,9.4
		c7,0,13.4-1.4,19.5-4.2L204.1,237.9z M102.8,182h10.3c6.3,0,10.8,0.7,13.5,2.1c2.7,1.4,4,4.2,4,8.5c0,4.3-1.5,7.1-4.3,8.3
		c-2.9,1.3-7.3,1.9-13.3,1.9h-10.2V182z M131.4,239.8c-3.1,1.5-7.7,2.3-13.9,2.3h-14.8v-22.2h12.7c7.2,0,12.4,0.7,15.7,2.1
		c3.3,1.4,4.9,4.4,4.9,8.8C136,235.3,134.5,238.3,131.4,239.8 M139,210.3c-0.1,0-0.2-0.1-0.3-0.1c0.1-0.1,0.2-0.1,0.4-0.2
		C139,210.1,139,210.2,139,210.3"/>
	<polygon clip-path="url(#SVGID_2_)" fill="#CE9D72" points="227.6,133.5 229.3,137 233.3,137.6 230.4,140.4 231.1,144.3 
		227.6,142.4 224.1,144.3 224.7,140.4 221.9,137.6 225.8,137 	"/>
	<polygon clip-path="url(#SVGID_2_)" fill="#CE9D72" points="203,133.5 204.7,137 208.7,137.6 205.8,140.4 206.5,144.3 203,142.4 
		199.5,144.3 200.1,140.4 197.3,137.6 201.2,137 	"/>
	<polygon clip-path="url(#SVGID_2_)" fill="#CE9D72" points="252.2,133.5 253.9,137 257.8,137.6 255,140.4 255.7,144.3 252.2,142.4 
		248.6,144.3 249.3,140.4 246.5,137.6 250.4,137 	"/>
	<polygon clip-path="url(#SVGID_2_)" fill="#CE9D72" points="117.3,133.5 119,137 122.9,137.6 120.1,140.4 120.8,144.3 117.3,142.4 
		113.7,144.3 114.4,140.4 111.6,137.6 115.5,137 	"/>
	<polygon clip-path="url(#SVGID_2_)" fill="#CE9D72" points="92.7,133.5 94.4,137 98.4,137.6 95.5,140.4 96.2,144.3 92.7,142.4 
		89.2,144.3 89.8,140.4 87,137.6 90.9,137 	"/>
	<polygon clip-path="url(#SVGID_2_)" fill="#CE9D72" points="141.8,133.5 143.6,137 147.5,137.6 144.7,140.4 145.4,144.3 
		141.8,142.4 138.3,144.3 139,140.4 136.2,137.6 140.1,137 	"/>
	<path clip-path="url(#SVGID_2_)" fill="#CE9D72" d="M321.8,136.2l0.7-1.2L289,101.5V88.3l-30.6-33.9l-3.8-10.8l-3.8,10.9h0
		l-20.3,20.6l-24.7-11.3l8.6-9.7l-38.1-27l-3.8-10.8v-0.1l0,0l0,0v0.1l-3.8,10.8l-38.1,27l8.6,9.7l-24.7,11.3L94,54.5h0l-3.8-10.9
		l-3.8,10.8L55.8,88.3v13.2L22.3,135l0.7,1.2c0.1,0.2,13.5,22.4,16.9,42.1c3.6,20.8,3.9,50.1,0.9,68.1c-1.9,11.3-7.8,50-2,73.8
		c4.8,19.7,10.7,34.8,43,50c2.7,1.3,5.6,2.6,8.6,4c29.6,13.8,70.1,32.8,80.8,45.7l1.3,1.5v0l0,0l0,0v0l1.3-1.5
		c10.7-12.9,51.2-31.9,80.8-45.7c3-1.4,5.9-2.7,8.6-4c32.3-15.2,38.2-30.3,43-50c5.8-23.7-0.1-62.5-2-73.8
		c-3.1-18-2.7-47.3,0.9-68.1C308.3,158.6,321.7,136.4,321.8,136.2 M300.7,247c3.9,23,6.5,54,2,72.4c-4.5,18.7-10.2,33.1-41.1,47.6
		c-2.7,1.3-5.6,2.6-8.6,4c-28.8,13.4-67.8,31.7-80.6,45.1c-12.8-13.4-51.9-31.7-80.6-45.1c-3-1.4-5.9-2.7-8.6-4
		c-30.9-14.5-36.5-28.9-41.1-47.6c-4.5-18.4-1.9-49.4,2-72.4c3.2-18.6,2.8-47.8-0.9-69.3c-3.1-18-13.8-37.2-16.6-42.2l32.6-32.7
		V89.6l30.8-34.1l23.5,23.8l31.1-14.3l-9.1-10.3l36.7-25.9h0.1h0h0.1l36.7,25.9l-9.1,10.3l31.1,14.3l23.5-23.8l30.8,34.1v13.3
		l32.6,32.7c-2.9,4.9-13.6,24.2-16.6,42.2C297.9,199.3,297.5,228.4,300.7,247"/>
</g>
</svg>
