<?xml version="1.0" encoding="utf-8"?>
<!-- Generator: Adobe Illustrator 23.0.1, SVG Export Plug-In . SVG Version: 6.00 Build 0)  -->
<svg version="1.1" id="Layer_1" xmlns="http://www.w3.org/2000/svg" xmlns:xlink="http://www.w3.org/1999/xlink" x="0px" y="0px"
	 viewBox="0 0 314.4 314.4" enable-background="new 0 0 314.4 314.4" xml:space="preserve">
<g>
	<g>
		<path fill="#366FA6" d="M302.5,103.8l-14.2-4.6l-3.2,6.6l-1,2.1c-0.1-0.2-0.1-0.3-0.2-0.4c-1.1-2.1-3-3.5-5.6-4.3
			c-1-0.3-2-0.4-3.1-0.4l-8.8-2.4l2.7-6.9l-3.5-0.8c-0.6-13.1-2.6-20.9-2.7-21.5l-0.9-3.2l-3.3-0.4c-52.8-6.1-82.7-27.7-95-39
			c-4.3-3.9-6.4-6.6-6.7-6.9l0,0c0,0,0,0,0,0l0,0c-0.3,0.4-2.4,3-6.7,6.9c-12.3,11.3-42.1,32.9-95,39L51.9,68L51,71.1
			c-0.2,0.7-2.7,10.4-2.8,26.5l-9.8,2.1c-0.3-0.6-0.7-1.1-1.1-1.6c-1.1-1.3-2.4-2.2-4-2.8c-1.5-0.5-2.9-0.7-4.3-0.5
			c-1.1,0.1-2.3,0.3-3.8,0.7l-13.8,3.6l0.7,35.7l19.1-5c3.6-0.9,6.3-2.8,8-5.4c0.3,0.3,0.6,0.6,0.9,0.8c1.9,1.4,4.3,1.9,6.8,1.3
			c1-0.2,2.1-0.6,3-1.1c0.7,5.2,1.8,10.7,3.1,16.4c5.6,24.3,15.9,48.4,30.4,71.4c10.2,16.2,22.6,31.9,36.9,46.9
			c6.7,7,13.8,13.9,21.3,20.6c3.6,3.2,7.3,6.4,11.1,9.6c1.3,1.1,2.6,2.2,4,3.3c1.3-1.1,2.7-2.2,3.9-3.3c3.8-3.1,7.5-6.3,11-9.5
			c7.6-6.8,14.7-13.7,21.4-20.7c14.4-15.1,26.7-30.8,36.9-46.9c14.6-23.1,24.8-47.1,30.4-71.4c1.1-4.8,2-9.4,2.7-13.8l10.7,3
			l13.2,4.3l12.1-24.8l0,0L302.5,103.8z M286.7,134l-12.5-4l-10.7-3l-1.2-0.3c0,0.2-0.1,0.3-0.1,0.5c0,0.2-0.1,0.3-0.1,0.5
			c-0.7,4.6-1.6,9.4-2.8,14.4c-5.6,24-15.7,47.8-30.1,70.6c-10.1,15.9-22.3,31.4-36.5,46.3c-6.6,6.9-13.6,13.8-21.1,20.4
			c-3.5,3.2-7.2,6.3-10.9,9.4c-1.3,1.1-2.6,2.1-3.9,3.2c-1.3-1.1-2.6-2.1-3.9-3.2c-3.7-3.1-7.4-6.3-10.9-9.4
			c-7.4-6.7-14.5-13.5-21.1-20.4c-14.2-14.9-26.4-30.4-36.5-46.4c-14.4-22.8-24.5-46.5-30.1-70.6c-1.4-5.9-2.4-11.6-3.2-16.9
			c0-0.2,0-0.3-0.1-0.5c0-0.2,0-0.3-0.1-0.5l-1.2,0.3l0,0l-0.1,0.1c-0.9,0.5-1.9,0.8-2.9,1c-2.3,0.5-4.4,0.1-6-1.1
			c-0.5-0.4-0.9-0.8-1.2-1.2l-0.5-0.6l-0.4,0.7c-1.6,2.8-4.2,4.6-7.8,5.6l-17.8,4.7l-0.7-33.6l13-3.4c1.4-0.4,2.6-0.6,3.6-0.7
			c1.2-0.1,2.5,0,3.8,0.5c1.4,0.5,2.6,1.3,3.5,2.5c0.5,0.6,0.9,1.2,1.2,1.8l0.2,0.4l10.3-2.2l1.4-0.3v-0.5c0-0.2,0-0.4,0-0.5
			c0.3-15.3,2.6-24.5,2.8-25.2l0.8-3.1l3.2-0.4c52.3-6.1,81.7-27.4,93.8-38.5c4.2-3.8,6.3-6.5,6.6-6.8l0,0c0,0,0,0,0,0l0,0
			c0.3,0.4,2.4,3,6.6,6.8c12.2,11.1,41.7,32.5,93.8,38.5l3.2,0.4l0.8,3.1c0.2,0.6,2,7.8,2.6,20.1c0,0.2,0,0.4,0,0.5
			c0,0.2,0,0.4,0,0.5l1.4,0.3l2.1,0.5l-2,5l-0.5,1.2l-0.1,0.5L265,101l0.7,0.2l9.4,2.6c1.1,0,2.1,0.2,3,0.4c2.3,0.6,4,1.9,5,3.8
			c0.2,0.4,0.4,0.9,0.6,1.4l0.4,1.2l4.9-10.1l12.2,3.9L286.7,134z"/>
	</g>
	<path fill="#474A4B" d="M258.3,74.8l-0.8-3l-3.1-0.4c-50.5-5.9-79.1-26.6-91-37.4c-4.1-3.7-6.2-6.3-6.4-6.6l0,0c0,0,0,0,0,0l0,0
		c-0.3,0.4-2.3,2.9-6.4,6.6c-11.8,10.8-40.3,31.5-91,37.3l-3.1,0.4l-0.8,3c-0.3,1.1-7.2,27.8,2.1,67.7c5.4,23.3,15.2,46.3,29.1,68.4
		c9.8,15.5,21.6,30.5,35.4,44.9c6.4,6.7,13.2,13.3,20.4,19.8c3.4,3.1,7,6.1,10.6,9.1c1.2,1.1,2.5,2.1,3.8,3.1c1.3-1,2.5-2.1,3.8-3.1
		c3.6-3,7.1-6.1,10.6-9.1c7.2-6.5,14.1-13.1,20.4-19.8c13.8-14.4,25.6-29.5,35.3-44.9c14-22.1,23.8-45.1,29.1-68.4
		C265.4,102.6,258.6,75.9,258.3,74.8z"/>
	<path fill="#CD3844" d="M247.2,140.5c-5.9,25.6-19.9,60.5-52.3,98c-0.8,0.9-1.6,1.8-2.4,2.8c-5.6,6.3-11.7,12.7-18.4,19.1
		c-1.1,1-2.2,2.1-3.3,3.1c-4.4,4.2-9.1,8.3-14,12.4c-4.9-4.1-9.5-8.2-13.9-12.3c-1.1-1.1-2.3-2.1-3.4-3.2
		c-6.7-6.4-12.8-12.8-18.4-19.1c-0.8-0.9-1.6-1.8-2.4-2.8c-32.2-37.3-46.2-72.1-52.1-97.5c-7.1-30.4-4.3-53-2.9-60.9
		c51.5-6.7,80.6-27.8,93.1-39.4c12.5,11.6,41.6,32.7,93.1,39.4C251.4,87.9,254.2,110.2,247.2,140.5z"/>
	<path fill="#FFFFFF" d="M86.5,161.9c0,0,8.3-0.8,13.7,2.1c5.4,2.9,7.4,6.4,9.9,10.9s3.7,5.6,5.8,3.4s1.5-3.6,2-4.3
		c0.5-0.7,2.2-1.5,2.2-1.5s-1.8-1.4-3.2-1.4c-1.4,0-3.3,2.3-4.8,2.2c-1.5-0.2-3.3-2.1-2.7-4.4c0.7-2.3,4.4-5.2,9.4-6.3
		c5-1.1,10.9-0.9,10.9-0.9s-9.7,4.6-12,8.5c0,0,2.7,1,4.3,2.7c0,0-2.8,0.2-3.3,1.4c-0.5,1.2-1.1,3.2-2.1,4.2c-1,0.9-2,2.3-3.2,2.9
		c-1.2,0.6-3.6,1.3-5.4,1.1c0,0-4.2,4.3-13,4.6c0,0,5.2-4.4,6.2-8.3c0,0,2.3,2.5,4.7,2.7c0,0-4-2.7-7.6-8.1
		C94.9,167.8,89.3,163.3,86.5,161.9z"/>
	<path fill="#FFFFFF" d="M225,161.9c0,0-8.3-0.8-13.7,2.1c-5.4,2.9-7.4,6.4-9.9,10.9s-3.7,5.6-5.8,3.4s-1.5-3.6-2-4.3
		c-0.5-0.7-2.2-1.5-2.2-1.5s1.8-1.4,3.2-1.4s3.3,2.3,4.8,2.2c1.5-0.2,3.3-2.1,2.7-4.4s-4.4-5.2-9.4-6.3s-10.9-0.9-10.9-0.9
		s9.7,4.6,12,8.5c0,0-2.7,1-4.3,2.7c0,0,2.8,0.2,3.3,1.4c0.5,1.2,1.1,3.2,2.1,4.2c1,0.9,2,2.3,3.2,2.9c1.2,0.6,3.6,1.3,5.4,1.1
		c0,0,4.2,4.3,13,4.6c0,0-5.2-4.4-6.2-8.3c0,0-2.3,2.5-4.7,2.7c0,0,4-2.7,7.6-8.1C216.6,167.8,222.2,163.3,225,161.9z"/>
	<g>
		<path fill="#FFFFFF" d="M176.1,187.9c-0.3-0.7-0.4-1.9-1.3-1.8c-0.8,0-0.9,1.1-1.2,1.8c-0.3,0.7-0.6,1.4-0.8,2.2
			c-0.5,1.4-1.1,2.7-1.7,4c3.2,1.1,6.2,2.5,9,4.3C178.9,194.8,177.6,191.3,176.1,187.9z M165.4,173.7c-1.2-0.6-2.4-1.2-3.6-1.8
			c-0.9-0.4-1.3-1.2-1.2-2.1c0.1-0.9,0.6-1.2,1.5-1.3c0.8,0,0.9-0.8,0.7-1.5c-0.2-0.8-0.8-0.9-1.4-0.6c-0.5,0.2-0.9,0.6-1.3,1
			c-2.4,2.2-5.7,2.1-7.9-0.3c-0.3-0.4-0.6-0.6-1.1-0.8c-0.6-0.2-1.1-0.4-1.7,0.1c-0.4,0.4-0.5,0.9-0.3,1.4c0.2,0.7,0.8,0.9,1.4,0.8
			c1-0.1,1.2,0.5,1.2,1.2c0.1,1-0.5,1.6-1.3,2.1c-1,0.6-2.2,0.8-3.4,1.1c-3.6,1.1-5.8,3.5-6.4,7.3c-0.4,2.8,0.2,5.4,1.3,7.9
			c0.8,1.8,1.8,3.5,3,5.1c3.8-1.1,7.8-1.7,11.9-1.7h0.1c0.7-0.7,1.5-1.3,2.1-2.1c1.3-1.4,2.4-2.9,3.2-4.6c0.8-1.7,1.5-3.4,1.6-5.7
			c-1.6,2.9-4,4.6-6.7,5.8c-0.7,0.3-1.2,0.3-1.9-0.1c-2.6-1.6-5.2-3.1-7.4-5.2c-1.7-1.6-1.6-3.2,0.3-4.6c0.8-0.6,1.7-1,2.6-1.5
			c1.2-0.6,2.1-1.5,2.1-2.8c0-0.9,0.6-0.6,1-0.5c1.7,0.4,3.5,0.4,5.3-0.4c-0.3,1.6,0.5,2.4,1.7,2.9c0.6,0.3,1.1,0.6,1.7,0.9
			c3.5,2.1,4.7,5.2,3.1,9c-1.6,3.8-4.3,6.7-7.6,8.8c3.7,0.1,7.3,0.7,10.6,1.6c0.8-2.2,1.5-4.4,2.1-7.2
			C172.5,179.7,171.3,177,165.4,173.7z M137.5,183c0.1,4.5,1.1,8.4,2.9,12c1.1-0.4,2.2-0.8,3.3-1.2
			C141.1,190.7,139.4,186.9,137.5,183z M133.7,190.1c-0.7,3.4-1.4,6.6-2.1,9.8c1.7-1.2,3.5-2.3,5.4-3.3
			C135.7,194.6,134.7,192.4,133.7,190.1z"/>
		<path fill="#FFFFFF" d="M149.7,160.3c-2.6-5-0.9-8.6,4.3-9.7c-0.1-0.4-0.5-0.3-0.7-0.5c-1.3-0.9-1-2.9,0.5-3.4
			c1.5-0.6,3.1-0.6,4.6-0.3c1.4,0.3,2,2,1.2,3.3c-0.2,0.3-0.4,0.6-0.7,0.9c0.6,0.3,1.2,0.5,1.8,0.7c2.8,1.3,3.9,3.9,2.9,6.8
			c-0.2,0.5-0.4,1-0.6,1.5c-0.2,0.4-0.3,0.8,0.4,0.8c0,0,0.1,0,0.1,0c1.2,1.1,0.4,2.4,0.2,3.6c-0.2,0.9-0.8,1.4-1.8,1.4
			c-0.6,0-0.3-0.4-0.3-0.7c0-1.2,0.3-2.5,0.3-3.7c0-0.9-0.3-1.3-1.3-0.9c-0.7,0.2-1.5,0.2-2.3,0.3c-0.3,0-0.6,0.1-0.6-0.3
			c0-0.1,0.3-0.4,0.5-0.4c0.7-0.1,1.4-0.2,2.2-0.3c1.4-0.2,1.7-0.6,1.6-2.5c0-1.4-0.5-2-1.8-2.1c-1.1,0-2.1,0.2-3,0.8
			c-0.5,0.4-0.9,0.4-1.4,0c-1-0.8-2.2-1.4-3.6-0.7c-1,0.5-1.6,1.2-1.5,2.4c0.1,1.2,0.8,1.6,1.8,1.8c3.8,0.9,3.3,0.5,3.2,4.2
			c0,1,0,1,1.8,1.8c-0.6,0-1.2,0-1.7,0c-0.7,0-0.9-0.4-0.9-1c0-0.6,0-1.3,0-1.9c0-1.4-2.1-2.8-3.4-2.2c-0.6,0.3-0.7,0.8-0.7,1.4
			c0,1.1,0,2.1,0.1,3.2c0.1,1-0.5,1.1-1.1,0.7c-1.2-0.8-1.1-2.2-1.2-3.5C148.3,160.7,149,160.5,149.7,160.3z"/>
		<path fill="#FFFFFF" d="M154.3,166.4c1.2-0.7,2.5-0.7,4.2,0C156.8,166.9,155.6,166.8,154.3,166.4z"/>
		<path fill="#FFFFFF" d="M154.7,167.1c0.9,0,1.8,0,2.8,0C156.8,168.2,155.5,168.2,154.7,167.1z"/>
		<path fill="#FFFFFF" d="M158,161.7c1,0,1.9,0.2,2.8-0.3c-0.2,0.8-0.3,1-0.9,1.1C159.1,162.7,158.5,162.5,158,161.7z"/>
		<path fill="#FFFFFF" d="M151.3,161.4c0.9,0.5,1.8,0.3,2.7,0.4C153,162.9,152.2,162.8,151.3,161.4z"/>
	</g>
	<g>
		<path fill="#FFFFFF" d="M85.3,124.6h2.3L85,136.5h-2.3L85.3,124.6z M85.2,129.8h5.1l-0.4,1.7h-5.1L85.2,129.8z M86.4,124.6H92
			l-0.4,1.7H86L86.4,124.6z"/>
		<path fill="#FFFFFF" d="M96.5,136.3c-0.4-0.2-0.8-0.5-0.9-0.8c-0.2-0.4-0.2-0.8-0.1-1.3l0.9-4c0.1-0.5,0.3-0.9,0.7-1.3
			c0.3-0.4,0.8-0.6,1.3-0.8c0.5-0.2,1.1-0.3,1.8-0.3c0.7,0,1.2,0.1,1.7,0.3c0.4,0.2,0.8,0.5,0.9,0.8c0.2,0.4,0.2,0.8,0.1,1.3
			l-0.9,4.1c-0.1,0.5-0.3,0.9-0.7,1.3c-0.3,0.4-0.8,0.6-1.3,0.8c-0.5,0.2-1.1,0.3-1.8,0.3C97.5,136.6,96.9,136.5,96.5,136.3z
			 M99.2,134.7c0.2-0.1,0.3-0.3,0.4-0.6l0.8-3.8c0.1-0.3,0-0.4-0.1-0.6c-0.1-0.1-0.3-0.2-0.6-0.2c-0.3,0-0.5,0.1-0.7,0.2
			c-0.2,0.1-0.3,0.3-0.4,0.6l-0.8,3.8c-0.1,0.3,0,0.5,0.1,0.6c0.1,0.1,0.3,0.2,0.6,0.2C98.8,134.9,99.1,134.9,99.2,134.7z"/>
		<path fill="#FFFFFF" d="M109.1,136.3c-0.4-0.2-0.8-0.5-0.9-0.8c-0.2-0.4-0.2-0.8-0.1-1.3l0.9-4c0.1-0.5,0.3-0.9,0.7-1.3
			c0.3-0.4,0.8-0.6,1.3-0.8c0.5-0.2,1.1-0.3,1.8-0.3c0.7,0,1.2,0.1,1.7,0.3c0.4,0.2,0.8,0.5,0.9,0.8c0.2,0.4,0.2,0.8,0.1,1.3
			l-0.9,4.1c-0.1,0.5-0.3,0.9-0.7,1.3c-0.3,0.4-0.8,0.6-1.3,0.8c-0.5,0.2-1.1,0.3-1.8,0.3C110.1,136.6,109.5,136.5,109.1,136.3z
			 M111.9,134.7c0.2-0.1,0.3-0.3,0.4-0.6l0.8-3.8c0.1-0.3,0-0.4-0.1-0.6c-0.1-0.1-0.3-0.2-0.6-0.2c-0.3,0-0.5,0.1-0.7,0.2
			c-0.2,0.1-0.3,0.3-0.4,0.6l-0.8,3.8c-0.1,0.3,0,0.5,0.1,0.6c0.1,0.1,0.3,0.2,0.6,0.2C111.4,134.9,111.7,134.9,111.9,134.7z"/>
		<path fill="#FFFFFF" d="M121.4,136c-0.4-0.4-0.5-0.9-0.3-1.7l1.9-8.8h2.3l-1.9,8.6c0,0.2,0,0.4,0.1,0.5c0.1,0.1,0.3,0.2,0.5,0.2
			h0.8l-0.4,1.7h-1.1C122.4,136.5,121.7,136.3,121.4,136z M121.4,128h4.9l-0.4,1.7H121L121.4,128z"/>
		<path fill="#FFFFFF" d="M133.1,124.6h2.3l-2.6,11.9h-2.3L133.1,124.6z M133.5,136.2c-0.3-0.3-0.5-0.6-0.6-1.1l0.4-1.3
			c0,0.2-0.1,0.4,0,0.6c0,0.2,0.1,0.3,0.3,0.4c0.1,0.1,0.3,0.1,0.5,0.1c0.3,0,0.6-0.1,0.8-0.3c0.2-0.2,0.4-0.5,0.5-0.8l0.7-3.3
			c0.1-0.3,0-0.6-0.1-0.8c-0.1-0.2-0.4-0.3-0.7-0.3c-0.2,0-0.4,0-0.6,0.1c-0.2,0.1-0.3,0.2-0.4,0.4c-0.1,0.2-0.2,0.4-0.3,0.6l0-1.1
			c0.3-0.5,0.7-0.9,1.2-1.1c0.5-0.3,0.9-0.4,1.4-0.4c0.5,0,0.9,0.1,1.2,0.3c0.3,0.2,0.5,0.5,0.6,0.9c0.1,0.4,0.1,0.8,0,1.4l-0.8,3.7
			c-0.1,0.5-0.3,1-0.6,1.4c-0.3,0.4-0.6,0.7-1,0.9c-0.4,0.2-0.9,0.3-1.4,0.3C134.3,136.6,133.9,136.5,133.5,136.2z"/>
		<path fill="#FFFFFF" d="M144.2,136c-0.4-0.4-0.5-1-0.3-1.8c0.2-0.9,0.7-1.6,1.4-2.1c0.7-0.5,1.6-0.7,2.8-0.7h1.1l-0.2,1.5h-1.2
			c-0.5,0-0.8,0.1-1.1,0.3c-0.3,0.2-0.5,0.6-0.6,1c-0.1,0.3,0,0.5,0.1,0.7c0.1,0.1,0.4,0.2,0.7,0.2c0.4,0,0.8-0.1,1.1-0.3
			c0.3-0.2,0.4-0.5,0.5-0.8l0,0.7c-0.1,0.4-0.3,0.8-0.5,1c-0.2,0.3-0.5,0.5-0.9,0.6c-0.3,0.1-0.8,0.2-1.2,0.2
			C145.2,136.6,144.6,136.4,144.2,136z M149.4,130.3c0.1-0.3,0-0.5-0.2-0.7c-0.2-0.2-0.4-0.2-0.8-0.2c-0.3,0-0.6,0.1-0.8,0.2
			c-0.2,0.2-0.3,0.4-0.4,0.7H145c0.2-0.8,0.6-1.4,1.3-1.8c0.7-0.4,1.5-0.7,2.6-0.7c0.7,0,1.3,0.1,1.7,0.3c0.5,0.2,0.8,0.5,1,0.9
			c0.2,0.4,0.2,0.8,0.1,1.4l-1.4,6.2H148L149.4,130.3z"/>
		<path fill="#FFFFFF" d="M159.7,134.1c0,0.2,0,0.4,0.1,0.5c0.1,0.1,0.3,0.2,0.5,0.2h0.5l-0.4,1.7h-0.9c-0.8,0-1.4-0.2-1.8-0.6
			c-0.4-0.4-0.5-0.9-0.3-1.7l2.1-9.7h2.3L159.7,134.1z"/>
		<path fill="#FFFFFF" d="M169.1,134.1c0,0.2,0,0.4,0.1,0.5c0.1,0.1,0.3,0.2,0.5,0.2h0.5l-0.4,1.7h-0.9c-0.8,0-1.4-0.2-1.8-0.6
			c-0.4-0.4-0.5-0.9-0.3-1.7l2.1-9.7h2.3L169.1,134.1z"/>
		<path fill="#FFFFFF" d="M186,136.3c-0.5-0.2-0.8-0.6-1-1c-0.2-0.5-0.2-1-0.1-1.6l1.3-6.1c0.1-0.6,0.4-1.2,0.8-1.6
			c0.4-0.5,0.9-0.8,1.5-1c0.6-0.2,1.3-0.4,2-0.4c0.8,0,1.4,0.1,1.9,0.4c0.5,0.2,0.8,0.6,1,1c0.2,0.5,0.2,1,0.1,1.6l-0.2,0.7H191
			l0.2-0.7c0.1-0.3,0.1-0.5,0-0.7c-0.1-0.2-0.2-0.3-0.3-0.4c-0.2-0.1-0.4-0.1-0.7-0.1c-0.3,0-0.5,0-0.7,0.1
			c-0.2,0.1-0.4,0.2-0.5,0.4c-0.1,0.2-0.3,0.4-0.3,0.7l-1.3,6.1c-0.1,0.3-0.1,0.5,0,0.7c0.1,0.2,0.2,0.3,0.4,0.4
			c0.2,0.1,0.4,0.1,0.7,0.1c0.3,0,0.5-0.1,0.7-0.2c0.2-0.1,0.4-0.2,0.5-0.4c0.1-0.2,0.2-0.4,0.3-0.7l0.2-0.7h2.4l-0.2,0.7
			c-0.1,0.6-0.4,1.2-0.8,1.6c-0.4,0.5-0.9,0.8-1.5,1s-1.3,0.4-2.1,0.4S186.5,136.5,186,136.3z"/>
		<path fill="#FFFFFF" d="M200.7,134.1c0,0.2,0,0.4,0.1,0.5c0.1,0.1,0.3,0.2,0.5,0.2h0.5l-0.4,1.7h-0.9c-0.8,0-1.4-0.2-1.8-0.6
			c-0.4-0.4-0.5-0.9-0.3-1.7l2.1-9.7h2.3L200.7,134.1z"/>
		<path fill="#FFFFFF" d="M209.9,134.2c-0.1,0.3,0,0.5,0.1,0.6c0.1,0.1,0.4,0.2,0.7,0.2c0.3,0,0.6-0.1,0.8-0.2
			c0.2-0.1,0.3-0.3,0.4-0.6l-0.1,0.9c-0.3,0.5-0.6,0.9-1,1.1c-0.4,0.2-0.9,0.4-1.4,0.4c-0.8,0-1.4-0.2-1.7-0.6
			c-0.3-0.4-0.4-1-0.2-1.8l1.4-6.3h2.3L209.9,134.2z M213.3,128h2.3l-1.9,8.5h-2.3L213.3,128z"/>
		<path fill="#FFFFFF" d="M223,124.6h2.3l-2.6,11.9h-2.3L223,124.6z M223.4,136.2c-0.3-0.3-0.5-0.6-0.6-1.1l0.4-1.3
			c0,0.2-0.1,0.4,0,0.6c0,0.2,0.1,0.3,0.3,0.4c0.1,0.1,0.3,0.1,0.5,0.1c0.3,0,0.6-0.1,0.8-0.3c0.2-0.2,0.4-0.5,0.5-0.8l0.7-3.3
			c0.1-0.3,0-0.6-0.1-0.8c-0.1-0.2-0.4-0.3-0.7-0.3c-0.2,0-0.4,0-0.6,0.1c-0.2,0.1-0.3,0.2-0.4,0.4c-0.1,0.2-0.2,0.4-0.3,0.6l0-1.1
			c0.3-0.5,0.7-0.9,1.2-1.1c0.5-0.3,0.9-0.4,1.4-0.4c0.5,0,0.9,0.1,1.2,0.3c0.3,0.2,0.5,0.5,0.6,0.9c0.1,0.4,0.1,0.8,0,1.4l-0.8,3.7
			c-0.1,0.5-0.3,1-0.6,1.4c-0.3,0.4-0.6,0.7-1,0.9c-0.4,0.2-0.9,0.3-1.4,0.3C224.2,136.6,223.8,136.5,223.4,136.2z"/>
	</g>
	<path fill="none" d="M180,198.4c-2.8-1.8-5.8-3.2-9-4.3"/>
	<g>
		<defs>
			<path id="SVGID_1_" d="M247.2,140.5c-5.9,25.6-19.9,60.5-52.3,98c-0.8,0.9-1.6,1.8-2.4,2.8c-5.6,6.3-11.7,12.7-18.4,19.1
				c-1.1,1-2.2,2.1-3.3,3.1c-4.4,4.2-9.1,8.3-14,12.4c-4.9-4.1-9.5-8.2-13.9-12.3c-1.1-1.1-2.3-2.1-3.4-3.2
				c-6.7-6.4-12.8-12.8-18.4-19.1c-0.8-0.9-1.6-1.8-2.4-2.8c-32.2-37.3-46.2-72.1-52.1-97.5c-7.1-30.4-4.3-53-2.9-60.9
				c51.5-6.7,80.6-27.8,93.1-39.4c12.5,11.6,41.6,32.7,93.1,39.4C251.4,87.9,254.2,110.2,247.2,140.5z"/>
		</defs>
		<clipPath id="SVGID_2_">
			<use xlink:href="#SVGID_1_"  overflow="visible"/>
		</clipPath>
		<path clip-path="url(#SVGID_2_)" fill="#FFFFFF" d="M194.9,252.1c2.3-5.2,3.6-10.9,3.6-16.9c0-0.7,0-1.4,0-2
			c-1.1-22-19.3-39.6-41.6-39.6c-22.3,0-40.5,17.6-41.6,39.6c0,0.7,0,1.4,0,2c0,6,1.3,11.8,3.6,16.9c7,7.3,14.4,14.5,22.3,21.6
			c4.8,2,10.2,3.1,15.7,3.1c5.5,0,10.9-1.1,15.7-3.1L194.9,252.1z"/>
		<g clip-path="url(#SVGID_2_)">
			<path fill="#CD3844" d="M158.3,208.5c0-2.4,1.2-4.7,3.1-6.1l8.3-6c8.1,2.7,15.1,7.8,20.1,14.6l-3,9.3c-0.7,2.2-2.4,3.9-4.5,4.7
				l-6.7,2.5c-2.4,0.9-5,0.5-7-1l-7-5.1c-1.9-1.4-3.1-3.7-3.1-6.1V208.5z"/>
			<path fill="#CD3844" d="M144.1,196.4l8.3,6c1.9,1.4,3.1,3.7,3.1,6.1v6.8c0,2.4-1.2,4.7-3.1,6.1l-7.1,5.2c-2,1.5-4.6,1.8-7,1
				l-6.4-2.3c-2.2-0.8-3.9-2.5-4.6-4.7l-3.1-9.7C129.2,204.1,136.1,199.1,144.1,196.4z"/>
			<path fill="#CD3844" d="M134.2,258.7h-10.6c-4.5-6.4-7.3-14.1-7.5-22.5c0-0.3,0-0.6,0-0.8l8.6-6.2c2-1.5,4.6-1.8,7-1l6.2,2.2
				c2.2,0.8,3.9,2.5,4.6,4.8l2.7,8.4c0.7,2.3,0.3,4.8-1.1,6.7l-3.9,5.3c-0.8,1.1-1.9,2-3.1,2.5C136.2,258.5,135.2,258.7,134.2,258.7
				z"/>
			<path fill="#CD3844" d="M172.5,264.1l-3.2,9.9c-3.9,1.2-8.1,1.9-12.4,1.9c-4.3,0-8.4-0.7-12.3-1.9l-3.2-9.9
				c-0.3-0.8-0.4-1.6-0.4-2.4c0-1.5,0.5-3,1.4-4.3l4-5.5c1.4-1.9,3.7-3.1,6.1-3.1h8.9c2.4,0,4.6,1.1,6,3l4,5.4
				c0.9,1.3,1.4,2.8,1.5,4.3C172.9,262.4,172.8,263.3,172.5,264.1z"/>
			<path fill="#CD3844" d="M190.1,258.8h-10.3c-1.1,0-2.2-0.2-3.1-0.7c-1.1-0.5-2.1-1.3-2.9-2.3l-4-5.5c-1.4-1.9-1.8-4.5-1.1-6.8
				l2.8-8.5c0.7-2.2,2.4-3.9,4.5-4.7l6.3-2.3c2.4-0.9,5-0.5,7,1l8.5,6.1v0.1c0,0.4,0,0.7,0,1C197.5,244.6,194.7,252.4,190.1,258.8z"
				/>
		</g>
	</g>
	<g>
		<g>
			<g>
				<g>
					<path fill="#FFFFFF" d="M142.3,80.3l-5.1,33.1l-12.6,0.6l-8.1,0.7l-0.1-0.2l-0.4,0.2c-0.9,0.4-1.9,0.6-2.9,0.7
						c-0.4,0-0.7,0.1-1.1,0.1c-2.5,0-4.5-0.8-5.9-2.2c-0.9-0.9-1.6-2-2-3.2l-0.5-1.3l-2.8,7.3l-10.2,1.3l-0.8-3.8l-1.5,4.1L78.1,119
						l-1.6-6.5l-0.3,6.5l-2,0.7c-2,0.7-3.5,1.1-4.6,1.3c-0.6,0.1-1.3,0.2-1.9,0.2c-1.8,0-3.4-0.6-4.6-1.7c-0.3-0.3-0.6-0.6-0.9-0.9
						l-0.9-1.1l-0.1,4.5l-10,2.1l-1.2,0.3l0,0l-0.1,0.1c-0.9,0.5-1.9,0.8-2.9,1c-2.3,0.5-4.4,0.1-6-1.1c-0.5-0.4-0.9-0.8-1.2-1.2
						l-0.5-0.6l-0.4,0.7c-1.6,2.8-4.2,4.6-7.8,5.6l-17.8,4.7l-0.7-33.6l13-3.4c1.4-0.4,2.6-0.6,3.6-0.7c1.2-0.1,2.5,0,3.8,0.5
						c1.4,0.5,2.6,1.3,3.5,2.5c0.5,0.6,0.9,1.2,1.2,1.8l0.2,0.4l10.3-2.2l1.4-0.3L61.1,96l0.1-1.8L74.1,84l-0.4,8.9h0V94l3-0.5h0
						l0.9-0.1l6.4-0.8l0.6,3.6l1.4-3.9l10.4-1.4l0.4,2.1l0.6-2.1l13.8-1.9l-0.3,0.8l1-0.3c1.3-0.4,2.9-0.7,4.6-0.9
						c4.1-0.3,6.8,0.1,8.7,1.3c0.8,0.5,1.4,1.1,1.9,1.9l0.8,1l1.8-11.9L142.3,80.3z"/>
					<polygon fill="#FFFFFF" points="73.7,92.9 73.7,93.2 73.7,92.9 					"/>
				</g>
			</g>
			<g>
				<g>
					<polygon fill="#FFFFFF" points="73.7,92.9 73.7,93.2 73.7,92.9 					"/>
				</g>
			</g>
			<g>
				<g>
					<path fill="#FFFFFF" d="M301,104.5L286.7,134l-12.5-4l-10.7-3l-1.2-0.3l-6.8-1.9l-0.1,0.1L243,122l0.7-1.7l-1.2,0.5
						c-1.6,0.7-3.5,0.9-5.3,0.6c-1.1-0.2-2.2-0.6-3.1-1.1l-0.6-0.3l-0.1,0.3l-11.6-2.2l-30.1-3.7l-0.1,0.2l-11.6-0.7l-0.1,0
						c-1,0.2-2,0.3-3,0.3c-1.8-0.1-3.4-0.7-4.6-1.7l-0.7-0.6l-0.3,1.4l-25.2-0.3l6.6-32.8l13.5,0.2l-4,19.8l8.4,0.1l3.1-12.4
						l22.3,1.3h0.3l1.4,0.1l0,0.1l10.2,1.2l0.1,0c1-0.2,1.9-0.2,2.9-0.1c1.6,0.2,3,0.8,4.3,1.9c0.1,0.1,0.2,0.2,0.3,0.2l0.4,0.4
						l0.3-0.2c0.5-0.2,0.9-0.4,1.5-0.6c1.4-0.4,2.9-0.6,4.4-0.4c3,0.4,4.6,1.9,5.4,3.1c0.3,0.4,0.5,0.9,0.7,1.4l0.5,1.3l3.9-10.8
						l12.5,2.4L243,95l-0.3,0.7h0.7c3.6,0.7,5.4,3,6.2,4.8c0.2,0.4,0.3,0.7,0.5,1.1l0.5,1.3l4.6-11.6l9,2.1l1.4,0.3l2.1,0.5l-2,5
						l-0.5,1.2l-0.1,0.5L265,101l0.7,0.2l9.4,2.6c1.1,0,2.1,0.2,3,0.4c2.3,0.6,4,1.9,5,3.8c0.2,0.4,0.4,0.9,0.6,1.4l0.4,1.2
						l4.9-10.1L301,104.5z"/>
				</g>
			</g>
		</g>
	</g>
	<g>
		<g>
			<path fill="#366FA6" d="M15.6,102.5l10.6-2.8c1.3-0.3,2.4-0.6,3.2-0.6c0.9-0.1,1.7,0,2.6,0.3c0.9,0.3,1.6,0.8,2.2,1.6
				c0.6,0.7,1,1.6,1.2,2.6c0.3,1.3,0.2,2.6-0.2,3.9c-0.4,1.3-1.4,2.4-2.7,3.3l0,0.1c2.6,0.2,4.2,1.6,4.8,4.4c0.4,2,0.1,4-1.1,6.1
				c-1.2,2-3.2,3.4-6,4.2l-14.2,3.7L15.6,102.5z M23,111.1l2.4-0.6c1-0.3,1.8-0.6,2.4-0.9c0.5-0.3,0.9-0.8,1.2-1.4
				c0.2-0.6,0.3-1.2,0.2-1.7c-0.1-0.6-0.4-1.1-0.9-1.3c-0.5-0.2-1.2-0.2-2.4,0.1l-3,0.8L23,111.1z M23.2,121.7l3.8-1
				c2.7-0.7,3.8-2,3.4-4c-0.1-0.7-0.5-1.2-0.9-1.5c-0.5-0.3-1.3-0.3-2.5,0l-3.9,1L23.2,121.7z"/>
		</g>
		<g>
			<path fill="#366FA6" d="M58.6,99.9l-0.4,19.4l-6.1,1.3l0.1-3l-0.1-0.1c-1.4,2.6-3.3,4.2-5.9,4.7c-1.5,0.3-2.8,0.1-3.7-0.6
				c-0.9-0.7-1.5-1.7-1.7-2.9c-0.1-0.8-0.2-2.4-0.1-4.8l0.2-10.4l6.4-1.4l-0.2,9.5c0,1.4,0,2.2,0,2.4c0,0.2,0,0.5,0.1,0.8l0,0.1
				c0.2,1,0.7,1.4,1.5,1.2c1-0.2,1.7-0.9,2.3-2c0.5-1.1,0.8-2.7,0.9-4.6l0.2-8.4L58.6,99.9z"/>
		</g>
		<g>
			<path fill="#366FA6" d="M73.8,97.3l-0.3,5.3l-3.4,0.6l-0.3,6.8c0,0.3,0,0.6,0,0.9c0.1,0.8,0.7,1.2,1.7,1c0.3-0.1,1-0.3,2-0.7
				l-0.2,5.3c-1.9,0.6-3.3,1-4.2,1.2c-1.8,0.3-3.2,0.1-4.1-0.8c-0.9-0.8-1.4-1.8-1.6-3c-0.1-0.4,0-1.4,0-3.1l0.3-6.6l-2.3,0.4
				l0.2-5.3L64,99l0.1-3l6.7-5.3l-0.3,7.2L73.8,97.3z"/>
		</g>
		<g>
			<path fill="#366FA6" d="M106.4,92.9L98.7,113l-5.8,0.8l-2.2-11.1l-0.1,0l-4.4,11.9l-5.9,0.8l-4.6-18.5l5.9-0.8l1.9,11.8l0.1,0
				l4.6-12.7l5.9-0.8l2.2,11.6l0.1,0l3.4-12.4L106.4,92.9z"/>
		</g>
		<g>
			<path fill="#366FA6" d="M107.8,98.2c0.3-1.8,1.1-3.3,2.4-4.4c1.3-1.1,3.5-1.7,6.5-2c3.4-0.3,5.6,0,6.9,0.9c1.2,0.8,1.9,2.2,2,3.9
				c0.1,1.2-0.1,3.2-0.5,5.9c-0.4,2.6-0.5,4.4-0.5,5.5c0.1,0.9,0.2,1.7,0.6,2.6l-6.4,0.5c-0.2-0.7-0.3-1.5-0.4-2.1
				c-1.6,1.9-3.5,2.9-5.6,3.1c-2.2,0.2-3.7-0.3-4.8-1.3c-1-1-1.6-2.3-1.7-3.8c-0.1-1.7,0.2-3,1-3.9c0.8-0.9,1.8-1.6,3-2
				c1.2-0.4,2.9-0.8,5-1.2c1.9-0.4,3.1-0.7,3.8-1c0.1-0.6,0.1-1,0.1-1.3c0-0.5-0.3-0.8-0.7-1.1c-0.5-0.3-1-0.3-1.8-0.3
				c-0.8,0.1-1.4,0.2-1.8,0.5c-0.4,0.3-0.8,0.9-1.1,1.8L107.8,98.2z M118.7,102.6c-3,0.8-4.7,1.4-5.2,1.9c-0.5,0.5-0.7,1-0.7,1.6
				c0,0.6,0.3,1.1,0.7,1.4c0.4,0.3,0.9,0.5,1.5,0.4c0.8-0.1,1.6-0.5,2.4-1.3C118.1,105.8,118.6,104.5,118.7,102.6z"/>
		</g>
		<g>
			<path fill="#366FA6" d="M138.7,83.8l-4,26.4l-6.6,0.3l4.1-26.4L138.7,83.8z"/>
		</g>
		<g>
			<path fill="#366FA6" d="M170.3,103.6L169,110l-19.1-0.2l5.2-26.2l7.4,0.1l-4,19.8L170.3,103.6z"/>
		</g>
		<g>
			<path fill="#366FA6" d="M194,92.4l-4.6,18.7l-6.2-0.4l0.7-2.9l-0.1-0.1c-1.9,2.2-4.1,3.2-6.7,3c-1.6-0.1-2.7-0.6-3.5-1.5
				c-0.7-0.9-1.1-2-1-3.3c0-0.8,0.3-2.4,0.9-4.7l2.5-10l6.6,0.4l-2.2,9.1c-0.3,1.3-0.5,2.1-0.6,2.3c0,0.2-0.1,0.5-0.1,0.8l0,0.1
				c0,1,0.3,1.6,1.2,1.6c1,0.1,1.9-0.4,2.6-1.3c0.8-1,1.4-2.4,1.8-4.2l2-8.1L194,92.4z"/>
		</g>
		<g>
			<path fill="#366FA6" d="M214.8,97.5c1.4-1.1,2.6-1.8,3.6-2.1c1.1-0.3,2.2-0.4,3.3-0.3c1.5,0.2,2.6,0.8,3.3,1.8
				c0.7,1,1,2.1,0.8,3.4c-0.1,0.8-0.2,1.5-0.4,2.2l-3.6,12.1l-6.6-0.8l2.4-7.9c0.6-2,0.9-3.2,1-3.6c0.1-0.4,0.1-0.7,0.1-0.8
				c0.1-1-0.3-1.5-1.1-1.6c-1-0.1-1.8,0.2-2.5,1.1c-0.7,0.8-1.4,2.2-1.9,4.1l-2.4,8.2l-6.6-0.8l2.3-7.7c0.6-2.1,1-3.3,1.1-3.7
				c0.1-0.4,0.1-0.7,0.2-0.9c0.1-1-0.3-1.5-1.2-1.6c-0.7-0.1-1.4,0.2-2.2,0.9c-0.8,0.7-1.5,1.9-2,3.6l-2.7,8.8l-6.6-0.8l5.5-18.4
				l6.1,0.7l-0.8,2.6l0.1,0.1c2.1-1.9,4.3-2.7,6.6-2.4c1.1,0.1,2,0.5,2.8,1.2C214.1,95.6,214.6,96.5,214.8,97.5z"/>
		</g>
		<g>
			<path fill="#366FA6" d="M238,99.9c0.8-0.5,1.6-0.8,2.3-1c0.7-0.1,1.6-0.1,2.6,0.1c1.9,0.4,3.3,1.4,4.1,3c0.8,1.6,1,3.6,0.6,5.9
				c-0.5,3-1.6,5.5-3.5,7.7c-1.9,2.1-4,3-6.4,2.5c-2.5-0.5-4.2-2-5.1-4.6l-1.1,2.9l-6-1.1l8.9-24.9l6.5,1.2L238,99.9z M236.8,113
				c0.9,0.2,1.8-0.3,2.7-1.5c0.9-1.2,1.5-2.7,1.8-4.7c0.3-2.1-0.3-3.3-1.8-3.6c-1.1-0.2-2.1,0.3-3,1.6c-0.9,1.3-1.5,2.8-1.7,4.5
				c-0.2,1.1,0,1.9,0.4,2.6C235.6,112.5,236.2,112.8,236.8,113z"/>
		</g>
		<g>
			<path fill="#366FA6" d="M260.7,103.4l-7.1,17.7l-6.5-1.5l7.1-17.7L260.7,103.4z M263.4,96.6l-1.8,4.7l-6.4-1.5l1.8-4.7
				L263.4,96.6z"/>
		</g>
		<g>
			<path fill="#366FA6" d="M270.1,108.9c2.2-1.7,4.6-2.2,7.1-1.5c1.5,0.4,2.5,1.2,3.1,2.2c0.6,1.1,0.7,2.2,0.4,3.4
				c-0.2,0.7-0.7,2.1-1.6,4.2l-4.2,9.5l-6.4-1.8l3.6-8.1c0.9-2,1.3-3.1,1.4-3.4c0.2-1-0.1-1.6-0.9-1.9c-0.9-0.3-1.9,0-2.8,0.8
				c-0.9,0.8-1.8,2-2.5,3.8l-3.4,7.5l-6.4-1.8l7.7-17.4l6,1.7L270.1,108.9L270.1,108.9z"/>
		</g>
		<g>
			<path fill="#366FA6" d="M293.5,113l-8.3,17.1l-6.3-2.1l8.3-17.1L293.5,113z M296.7,106.5l-2.2,4.5l-6.3-2l2.1-4.5L296.7,106.5z"
				/>
		</g>
	</g>
</g>
</svg>
