<?xml version="1.0" encoding="utf-8"?>
<!-- Generator: Adobe Illustrator 23.0.1, SVG Export Plug-In . SVG Version: 6.00 Build 0)  -->
<svg version="1.1" id="Layer_1" xmlns="http://www.w3.org/2000/svg" xmlns:xlink="http://www.w3.org/1999/xlink" x="0px" y="0px"
	 viewBox="0 0 1130.6 1126.1" enable-background="new 0 0 1130.6 1126.1" xml:space="preserve">
<g>
	<defs>
		<rect id="SVGID_1_" x="-163.1" y="-156.9" width="1440" height="1440"/>
	</defs>
	<clipPath id="SVGID_2_">
		<use xlink:href="#SVGID_1_"  overflow="visible"/>
	</clipPath>
	<path clip-path="url(#SVGID_2_)" fill="#0260A5" d="M850.6,603.6c0.8,4.8,1.5,12.6-0.7,21.7c-3.1,13.2-10.4,21.8-14.1,25.6
		c-3.3,8.9-13.2,32.5-38.2,48.5c-4,2.5-7.9,4.7-11.7,6.4c-8.8,4-16.8,5.9-22.7,7c-0.3-12.8-0.7-25.6-1-38.5l-12.2,5.9l-8.6-37.5
		l-22,6.6l-11.2-13.5l-7.9,16.1c7.4,0.7,12,3.2,14.7,5.3c20,15.1,13,56.8,29.2,70.9c1.5,1.3,3,2,3.8,2.5c2.3-5.3,4.6-10.5,6.9-15.8
		c3.9,5.2,12.1,17.6,14.2,35.5c0,0.4,0.1,0.8,0.1,1.2c2,20.2-5,35.4-8.1,41.2c6.9,20.3,2,33.1,0.1,37.2c-9.6,21-39.5,33.8-75.1,28.6
		c-6.2-0.9-12.5-2.3-19-4.3c0.5-3.6,1-11.1-2.9-18.9c-7.9-15.9-26.4-18.4-28-18.6c-4.9,2.7-21.2,12.5-25.5,30.5
		c-2.7,11.1-0.3,23.4,6.3,34.7c7.4,12.6,20.1,23.8,37.1,30.4c-21,3.4-53.7,6.7-92.6,1.6c-16.8-2.2-34.8-5.9-53.5-11.9
		c-43.5-13.8-78.2-35.5-104.8-57.7c-34.6-28.8-55.6-58.4-64.8-72.3l-1.8,6.9c-3,11.8-9,36.9-11,59.4c-15.2-29.3-27.3-58.8-37-88.1
		c-1.4-4.2-2.7-8.3-4-12.5c-5.3-17.3-9.8-34.5-13.5-51.3c-0.9-4.2-1.8-8.4-2.7-12.6c-4.4-21.5-7.6-42.4-9.9-62.4
		c16.5-14,32.4-25.7,54.6-39.3c6.2-3.8,12.8-7.6,20.1-11.8c32-18.1,62-30.8,87.6-39.8c-0.9-6.5-1.8-19.1,3.8-33.1
		c2.9-7.1,6.6-12.6,9.7-16.5c6.5,6.6,19.8,18,39.7,22.8c7.3,1.8,13.9,2.3,19.5,2.2c10-4.4,20-8.8,30-13.2
		c20.7-9.1,43-14.1,65.7-14.8c43.5-1.2,102.1,3.9,128.4,16.2c9.7,4.5,18.6,9.3,26.8,14.3c3.6,2.2,7,4.4,10.3,6.7
		c17.2,5.7,38.4,14.3,61,27.6c23.5,13.8,41.8,28.7,55.4,41.3c-1,4.1-3.2,10.8-8.2,17.6C858.5,597.7,853.9,601.4,850.6,603.6"/>
	<path clip-path="url(#SVGID_2_)" fill="#0D335C" d="M870.1,606c0,0.2-0.1,0.5-0.1,0.7c-3.3,25.3-8,52.3-14.9,80.2
		c-0.7,2.8-1.4,5.6-2.1,8.5c-4.6,18-10.1,36.2-16.5,54.7c-1,2.8-2,5.6-3,8.4c-25.9,70.6-66.8,143-130.5,206.1
		c-20.1,19.9-40.8,37.2-61.5,52.2c0.2-1.1,0.3-2.2,0.4-3.3c0.3-2.6,0.4-5.3,0.4-7.9c0-1.3,0-2.5-0.1-3.8c0-1.4-0.1-2.7-0.3-4.1
		c-0.1-1.5-0.3-3-0.5-4.5c-0.3-2-0.7-4.1-1.1-6.1c-0.6-2.6-1.3-5.1-2-7.6c-0.8-2.5-1.8-5-2.8-7.5c-2-4.8-4.5-9.3-7.4-13.6
		c-0.7-1.1-1.5-2.2-2.3-3.3c0-0.2-0.1-0.4-0.2-0.5c-0.1-0.1-0.2-0.1-0.3-0.2c-2.2-2.8-4.5-5.5-7-8.1c-3.6-3.7-7.6-7.1-11.8-10.1
		c-2.4-1.7-5-3.3-7.6-4.7c1,0,2,0,3,0c18.2,0,36.5-1.5,54.5-4.4l54.6-8.9l-51.6-19.9c-12.9-5-23.4-13.5-29.6-24
		c-4.7-8-6.4-16.4-4.6-23.6c2-8.3,8.4-14.3,13.6-18c4.1,1.4,9.3,4,11.9,9.3c1.9,3.8,1.8,7.7,1.5,10.2l-1.7,12.5l12.1,3.8
		c7.1,2.2,14.2,3.8,21.3,4.8c5.9,0.9,11.9,1.3,17.7,1.3c34.3,0,62.3-14.7,73.3-38.5c3.2-7,7.8-21.7,2.3-42.3c6-13.9,8.4-29,6.9-43.9
		l-0.2-1.5c-0.9-7.5-2.7-14.9-5.5-22c0.3-0.8,0.6-1.5,0.9-2.3c0.1-0.1,0.1-0.2,0.1-0.4c0,0,0-0.1,0-0.1c4.2-1.3,8.4-2.9,12.4-4.7
		c4.6-2.1,9.2-4.6,13.6-7.4c25.1-16.1,37.4-39,43-52.9c7.7-8.7,13.1-19,15.7-30.1c1.4-6.1,2.1-12.3,1.8-18.6
		C867.4,608.8,868.8,607.4,870.1,606"/>
	<path clip-path="url(#SVGID_2_)" fill="#0D335C" d="M874.8,558c-16-14.2-33.3-26.8-51.8-37.7c-19.6-11.5-40.4-21-61.8-28.3
		c-3-2.1-6.1-4.1-9.2-6c-4.4-2.7-9-5.4-13.9-8l-6.1-35.1c-2.8-16.4-13.6-30.5-28.7-37.5c-20-9.2-43.7-18.1-71-24.9
		c-14.9-3.7-29.1-6.3-42.3-8c-15-2-30.1-2.3-45.1-0.8c-13.2,1.3-27.5,3.4-42.5,6.5c-27.5,5.8-51.5,13.9-71.8,22.4
		c-15.4,6.5-26.6,20.1-30.1,36.4l-8.1,38.6c-4.1,19.6-18,35.7-36.7,42.7c-9.1,3.4-18.6,6.9-27.2,10.2c-10.8,4-17.7,14.7-16.8,26.3
		c0,0.3,0.1,0.6,0.1,1c-2.2,1.3-4.2,2.5-6.2,3.8c-18.3,11.2-33.4,21.7-48.8,34.3c-5.7-62-2.9-113.5-0.2-143.7
		c1-10.9,6.6-20.8,15.5-27.2c74.7-53.9,164.7-82.1,225.8-96.1c46.5-10.7,94.8-9.8,140.9,2.5c60.6,16.2,149.5,47.5,222.3,104
		c8.6,6.7,13.9,16.8,14.5,27.7C876.7,483.4,877.6,517.1,874.8,558"/>
	<path clip-path="url(#SVGID_2_)" fill="#0D335C" d="M224.6,692.7c-15.7,5.8-31.2,12-46.6,18.6c-28-50.4-57.1-111.6-82.2-183.2
		l40.9-12.2l-56.2-34.5c-21.9-71.8-34.5-137.2-41.8-192.4c23.9,33.6,61.5,77,117.8,113.5c8.6,5.6,17,10.6,25.3,15.2
		c6.2,3.4,11.6,7.8,16.1,13c7.3,9.5,8.7,18.6,8.8,23.6c-1.2,16.7-2,35.9-2,57.4c0,49.6,4.4,110.6,18.9,176.2
		C223.8,689.4,224.2,691.1,224.6,692.7"/>
	<path clip-path="url(#SVGID_2_)" fill="#0D335C" d="M1034.9,481.1l-54.2,34.4l39.4,12.2c-12.9,38.1-27,73.3-41.4,105.5
		c-13.1,29.4-26.6,56.2-39.7,80.5c-14.5-6.4-29.3-12.4-44.1-18c0.4-1.7,0.8-3.4,1.2-5.1c21.3-94.4,21.4-179.7,17.5-235.7v-0.1
		c0-7.2,2.6-24.1,24.1-37.6c7.8-4.5,15.8-9.4,23.8-14.8c54.3-36.4,90.6-79.7,113.7-113.3C1068.2,344.2,1056.1,409.5,1034.9,481.1"/>
	<path clip-path="url(#SVGID_2_)" fill="#0D335C" d="M492.4,952.8c-3,3.7-5.6,7.7-7.9,11.9c-2.5,4.6-4.6,9.4-6.2,14.3
		c-0.8,2.5-1.5,5.1-2.1,7.7c-0.1,0.3-0.1,0.6-0.2,0.9c0,0-0.1,0.1-0.1,0.1c-0.1,0.7-0.3,1.3-0.4,2c0,0.2-0.1,0.3-0.1,0.4
		c0.1-0.1,0.1-0.2,0.2-0.3c-0.3,1.5-0.5,3.1-0.7,4.6c-0.3,2.6-0.5,5.3-0.6,7.9c-0.1,2.6,0,5.3,0.1,7.9c0.1,2.3,0.4,4.5,0.7,6.8
		c-21.5-16.5-43.1-35.6-63.8-57.7c-29.3-31.2-53.4-64.3-73.1-98.1l1.9-21.7c1-11.1,3-22.9,5.1-33.4c14.5,18,31,34.8,48.6,49.4
		c11,9.1,22.4,17.4,34.2,25c7.9,10.6,16.3,21.1,25.3,31.5C466.1,926.9,479.3,940.4,492.4,952.8"/>
	<path clip-path="url(#SVGID_2_)" fill="#C82C2F" d="M910.4,773c-18.4,34.8-42.6,73.6-74.5,113c-22.8,28.1-46.2,52.5-69.3,73.6
		c46.5-55.5,82.6-120,107.7-192.3c0.9-2.7,1.8-5.3,2.7-8C888.3,763.6,899.4,768.2,910.4,773"/>
	<path clip-path="url(#SVGID_2_)" fill="#C82C2F" d="M346.6,951c-20.1-19.1-40.4-40.7-60.2-65c-33.1-40.8-57.9-81-76.5-116.8
		c10.7-4.5,21.4-8.8,32.3-12.9c1.3,4,2.7,8,4.2,12.5C270.3,836.8,303.8,897.9,346.6,951"/>
	<polygon clip-path="url(#SVGID_2_)" fill="#0D335C" points="233.4,209.4 225.2,198.5 219.7,191.1 209.9,198.5 200.9,205.1 
		196,198.5 195.8,198.2 217.1,182.3 203.2,163.6 161.6,194.6 164.4,198.5 211.1,261.1 231.4,245.9 214.7,223.4 	"/>
	<path clip-path="url(#SVGID_2_)" fill="#0D335C" d="M298.1,168.2c-0.2,2.2-0.9,4.4-2.1,6.6c-1.2,2.2-3.1,4-5.7,5.5
		c-1.8,1-3.8,1.6-5.8,1.9c-2,0.2-4.1,0-6.1-0.7c-2-0.7-3.9-1.7-5.6-3.2c-1.8-1.5-3.3-3.4-4.7-5.8c-1.3-2.4-2.2-4.7-2.6-7.1
		c-0.4-2.3-0.4-4.5,0.1-6.6c0.5-2,1.3-3.9,2.6-5.5c1.2-1.6,2.8-3,4.7-4c2.3-1.3,4.7-2,7.1-2.2c2.4-0.1,4.7,0.3,7,1.4l3.8-25.7
		c-4.8-1.3-10-1.6-15.6-0.8c-5.6,0.8-11,2.6-16.2,5.5c-5,2.8-9.3,6.4-12.7,10.7c-3.4,4.3-5.9,9-7.3,14.2c-1.4,5.2-1.8,10.6-1,16.4
		c0.7,5.8,2.7,11.5,6,17.3c2.8,4.9,6,9.1,9.8,12.4c0.6,0.5,1.2,1,1.8,1.5c4.5,3.6,9.3,6.2,14.5,7.7c5.2,1.5,10.5,2,16,1.3
		c5.5-0.6,10.7-2.4,15.8-5.2c2.9-1.6,5.4-3.4,7.7-5.3c2.2-1.9,4.1-3.9,5.7-6c3.3-4.4,5.6-9.1,6.8-14.1L298.1,168.2z"/>
	<path clip-path="url(#SVGID_2_)" fill="#0D335C" d="M411.7,123.9c-0.6,2.1-1.8,4.1-3.4,6c-1.6,1.9-3.9,3.3-6.7,4.2
		c-2,0.6-4,0.8-6.1,0.6c-2-0.2-4-0.9-5.8-1.9c-1.8-1.1-3.5-2.5-4.9-4.3c-1.4-1.8-2.6-4-3.4-6.6c-0.8-2.6-1.2-5.1-1.1-7.4
		c0.1-2.4,0.6-4.5,1.5-6.4c0.9-1.9,2.1-3.5,3.6-4.9c1.5-1.4,3.4-2.4,5.4-3c2.6-0.8,5-1,7.4-0.7c2.4,0.4,4.6,1.3,6.6,2.8l8.9-24.4
		c-4.4-2.3-9.5-3.6-15.1-4c-5.7-0.4-11.3,0.3-17,2.1c-5.5,1.7-10.4,4.4-14.7,7.9c-4.3,3.5-7.6,7.6-10,12.4c-2.4,4.8-3.9,10-4.3,15.8
		c-0.4,5.8,0.3,11.8,2.3,18.2c2,6.3,4.8,11.6,8.5,16c3.7,4.4,7.9,7.9,12.6,10.5c4.8,2.6,9.9,4.1,15.4,4.5c5.5,0.5,11-0.2,16.5-1.9
		c6.1-1.9,11.3-4.7,15.4-8.4c4.2-3.6,7.3-7.8,9.5-12.4L411.7,123.9z"/>
	<polygon clip-path="url(#SVGID_2_)" fill="#0D335C" points="508.4,52.8 482.8,56.6 486.8,84.4 466,87.4 461.9,59.6 436.5,63.4 
		448.5,145.3 474,141.6 469.5,110.4 490.3,107.4 494.9,138.5 520.4,134.8 	"/>
	<polygon clip-path="url(#SVGID_2_)" fill="#0D335C" points="565.6,51.4 539.5,51.8 540.9,134.6 567,134.2 	"/>
	<polygon clip-path="url(#SVGID_2_)" fill="#0D335C" points="589.2,51.2 587,74.6 605.8,76.4 600.3,135.4 626,137.8 631.5,78.8 
		650.3,80.5 652.5,57.1 	"/>
	<polygon clip-path="url(#SVGID_2_)" fill="#0D335C" points="760.5,82.8 740,125.4 739.6,125.3 742.7,77.8 716.7,70.6 695.7,113.1 
		695.3,113 699.8,65.9 673.4,58.6 671.4,144 696.5,151 719.8,108.9 720.2,109 718.2,157 743.3,163.9 786,89.9 	"/>
	<path clip-path="url(#SVGID_2_)" fill="#0D335C" d="M829.1,110.7l-63.6,61.1l24.6,12l8.8-9.3l21.9,10.7L819,198l1,0.5l24.3,11.9
		l1.3-11.9l8.2-75.7L829.1,110.7z M813.7,158.2l14.6-15.6l-3.4,21.1L813.7,158.2z"/>
	<polygon clip-path="url(#SVGID_2_)" fill="#0D335C" points="939.4,175.4 924.2,198.5 916.3,210.5 916,210.2 917.5,198.5 922,163.2 
		900.9,148.5 866.1,198.5 853.6,216.5 873.7,230.6 894.7,198.5 895.4,197.5 895.7,197.7 895.6,198.5 890.6,242.3 912.3,257.4 
		953.2,198.5 959.6,189.4 	"/>
	<path clip-path="url(#SVGID_2_)" fill="#C82C2F" d="M587.2,257.3c-0.6,0.6-0.9,1.4-0.7,2.2l6.5,33.8c0.4,2-1.7,3.6-3.6,2.6
		l-31.7-16.9c-0.7-0.4-1.6-0.4-2.3,0l-31.7,16.9c-1.8,1-4-0.6-3.6-2.6l6.5-33.8c0.2-0.8-0.1-1.6-0.7-2.2l-25.1-24.4
		c-1.5-1.4-0.7-3.9,1.3-4.2l34.3-5.2c0.8-0.1,1.5-0.6,1.8-1.3l11.9-23.7l4.2-8.2c0.9-1.8,3.5-1.8,4.4,0l4.2,8.2l11.9,23.7
		c0.4,0.7,1,1.2,1.8,1.3l34.3,5.2c2,0.3,2.8,2.8,1.3,4.2L587.2,257.3z"/>
	<path clip-path="url(#SVGID_2_)" fill="#C82C2F" d="M447.1,278c-0.6,0.6-0.9,1.4-0.7,2.2l4.4,23.1c0.4,2-1.8,3.6-3.6,2.6
		l-21.8-11.6c-0.7-0.4-1.6-0.4-2.3,0L401.5,306c-1.8,1-4-0.6-3.6-2.6l4.4-23.1c0.2-0.8-0.1-1.6-0.7-2.2l-17.3-16.8
		c-1.5-1.4-0.7-3.9,1.3-4.2l23.6-3.6c0.8-0.1,1.5-0.6,1.8-1.3l11.1-22c0.9-1.8,3.5-1.8,4.4,0l11.1,22c0.4,0.7,1,1.2,1.8,1.3
		l23.6,3.6c2,0.3,2.8,2.8,1.3,4.2L447.1,278z"/>
	<path clip-path="url(#SVGID_2_)" fill="#C82C2F" d="M351.4,311.7c-0.6,0.6-0.9,1.4-0.7,2.2l2,10.5c0.4,2-1.7,3.6-3.6,2.6l-10-5.3
		c-0.7-0.4-1.6-0.4-2.3,0l-10,5.3c-1.8,1-4-0.6-3.6-2.6l2-10.5c0.2-0.8-0.1-1.6-0.7-2.2l-7.9-7.7c-1.5-1.4-0.7-3.9,1.3-4.2l10.8-1.6
		c0.8-0.1,1.5-0.6,1.8-1.3l5.1-10.2c0.9-1.8,3.5-1.8,4.4,0l5.1,10.2c0.4,0.7,1,1.2,1.8,1.3l10.8,1.6c2,0.3,2.8,2.8,1.4,4.2
		L351.4,311.7z"/>
	<path clip-path="url(#SVGID_2_)" fill="#C82C2F" d="M711.4,278c-0.6,0.6-0.9,1.4-0.7,2.2l4.4,23.1c0.4,2-1.8,3.6-3.6,2.6
		l-21.8-11.6c-0.7-0.4-1.6-0.4-2.3,0L665.8,306c-1.8,1-4-0.6-3.6-2.6l4.5-23.1c0.1-0.8-0.1-1.6-0.7-2.2l-17.3-16.8
		c-1.5-1.4-0.7-3.9,1.3-4.2l23.6-3.6c0.8-0.1,1.5-0.6,1.8-1.3l11.1-22c0.9-1.8,3.5-1.8,4.4,0l11.1,22c0.4,0.7,1,1.2,1.8,1.3
		l23.6,3.6c2,0.3,2.8,2.8,1.3,4.2L711.4,278z"/>
	<path clip-path="url(#SVGID_2_)" fill="#C82C2F" d="M788.5,311.7c-0.6,0.6-0.9,1.4-0.7,2.2l2,10.5c0.4,2-1.8,3.6-3.6,2.6l-10-5.3
		c-0.7-0.4-1.6-0.4-2.3,0l-10,5.3c-1.8,1-4-0.6-3.6-2.6l2-10.5c0.2-0.8-0.1-1.6-0.7-2.2l-7.9-7.7c-1.4-1.4-0.7-3.9,1.4-4.2l10.8-1.6
		c0.8-0.1,1.5-0.6,1.8-1.3l5.1-10.2c0.9-1.8,3.5-1.8,4.4,0l5.1,10.2c0.4,0.7,1,1.2,1.8,1.3l10.8,1.6c2,0.3,2.8,2.8,1.3,4.2
		L788.5,311.7z"/>
	<path clip-path="url(#SVGID_2_)" fill="#C82C2F" d="M607.9,1030.6L607.9,1030.6C607.9,1030.6,607.9,1030.6,607.9,1030.6
		L607.9,1030.6z M623.1,978.6c-3.5-8.7-8.7-16.5-15.4-23.2c-6.7-6.7-14.5-11.8-23.2-15.4c-8.4-3.4-17.3-5.1-26.3-5.1
		c-9.1,0-18,1.7-26.3,5.1c-8.7,3.5-16.5,8.7-23.2,15.4c-6.7,6.7-11.9,14.5-15.4,23.2c-3.4,8.4-5.1,17.3-5.1,26.4
		c0,9.1,1.7,18,5.1,26.3c3.5,8.7,8.7,16.5,15.4,23.2c6.7,6.7,14.5,11.8,23.2,15.4c8.4,3.4,17.3,5.1,26.3,5.1c9.1,0,18-1.7,26.3-5.1
		c8.7-3.5,16.5-8.7,23.2-15.4c6.7-6.7,11.9-14.5,15.4-23.2c3.4-8.4,5.1-17.3,5.1-26.3C628.2,995.8,626.5,986.9,623.1,978.6
		 M583,944.2c7.8,3.2,15.2,8,21.6,14.3c5.8,5.8,10.3,12.4,13.4,19.4c-3.9-2.7-8.1-4.9-12.5-6.7c-0.7-0.3-1.4-0.5-2.1-0.8l-20.6-23.3
		C582.9,946.2,583,945.2,583,944.2 M556.5,950.8c4.6-0.5,9.2-1,13.8-1.3c2.8-0.2,5.7-0.3,8.5,0l21,23.6c-0.7,2.3-1.4,4.6-2.3,6.8
		c-1.5,3.9-3.1,7.8-4.7,11.7l-30.4,3.1c-0.4-0.5-0.7-0.9-1.1-1.4c-3.6-4.1-7.2-8.1-10.8-12.2c0,0,0.1-0.1,0.1-0.1
		c-1.5-1.5-2.9-2.9-4.4-4.4l8.5-25.5C555.3,951,555.9,950.9,556.5,950.8 M503.2,975.4c1-2.8,2.1-5.6,3.3-8.3
		c0.9-2.1,1.9-4.1,3.1-6.1c0.7-0.8,1.5-1.6,2.3-2.4c7.4-7.4,16.2-12.7,25.5-15.8l-0.2,0.2c0.1,0.1,0.1,0.1,0.2,0.1
		c4.7,1.6,9,4,13,6.9l-7.9,23.8c0,0-0.1,0-0.1,0c-1.6,0.7-3.3,1.3-4.9,2c-6.6,3-13,6.3-19,10.3l-15.6-9.2
		C502.9,976.4,503,975.9,503.2,975.4 M506.5,1034.8c-0.3-0.1-0.5-0.3-0.8-0.4c-3.4-2.1-6.5-4.6-9.2-7.4c-4.2-11.8-4.9-24.6-2.1-36.8
		c1.3-2.6,2.8-5.1,4.5-7.4c0.5-0.7,1-1.5,1.6-2.2l15.8,9.4v0.4c0,8.5,0.8,16.9,2.5,25.3c0,0,0,0.1,0,0.1L506.5,1034.8z
		 M525.5,1061.8l26.5,4.7c0.2,0.1,0.4,0.3,0.6,0.4c2.7,1.4,5.5,2.6,8.4,3.5C548.8,1070.9,536.5,1068,525.5,1061.8 M553.9,1060.4
		c-0.4,0.6-0.9,1.1-1.4,1.7l-31.3-5.6c-3.7-4.4-7-9.1-9.8-14.2c-0.7-1.3-1.5-2.5-2.1-3.8l12.2-19.2c0.3,0.1,0.6,0.1,0.9,0.2
		c7.7,2,15.5,3.5,23.3,4.6c0.5,0.1,0.8,0.1,1.2,0.2l14.7,25.4C559.1,1053.3,556.6,1056.8,553.9,1060.4 M590.2,1045
		c-8.2,1.5-16.4,2.3-24.7,2.4l-15.1-26.1c2.3-4.4,4.7-8.7,7-13.1c1.6-3,3.1-6,4.7-9l31.2-3.2c3.8,5.6,7.5,11.4,10.6,17.4
		c0.6,1.1,1.2,2.2,1.7,3.4l-15.1,28.2C590.4,1045,590.3,1045,590.2,1045 M604.6,1051.3c-2.5,2.5-5.1,4.7-7.9,6.7
		c-0.5-3.7-1.3-7.3-2.4-10.8L610,1018c4.3-2,8.5-4.2,12.3-7c0.5-0.4,0.9-0.8,1.3-1.2C622.4,1025,616.1,1039.8,604.6,1051.3"/>
	<path clip-path="url(#SVGID_2_)" fill="#0D335C" d="M815.6,533c-22.6-13.3-43.8-22-61-27.6c-3.3-2.3-6.7-4.5-10.3-6.7
		c-8.2-5-17.1-9.8-26.8-14.3c-26.3-12.4-84.8-17.4-128.4-16.2c-22.7,0.6-45,5.6-65.7,14.8c-10,4.4-20,8.8-30,13.2
		c-5.5,0-12.2-0.5-19.5-2.2c-19.9-4.8-33.2-16.2-39.7-22.8c-3.2,3.9-6.9,9.3-9.7,16.5c-5.6,14-4.7,26.6-3.8,33.1
		c-25.5,8.9-55.6,21.6-87.6,39.8c-7.3,4.1-14,8-20.1,11.8c-22.2,13.6-38.1,25.3-54.6,39.3c2.3,20,5.5,40.9,9.9,62.5
		c0.8,4.2,1.8,8.4,2.7,12.6c3.7,16.8,8.2,34,13.5,51.3c1.3,4.2,2.6,8.3,4,12.5c9.7,29.2,21.8,58.8,37,88.1c2-22.5,8-47.5,11-59.4
		l1.8-6.9c9.2,13.9,30.2,43.5,64.8,72.3c26.6,22.1,61.3,43.8,104.8,57.7c18.7,6,36.7,9.7,53.5,11.9c39,5.1,71.7,1.8,92.6-1.6
		c-17-6.5-29.8-17.8-37.1-30.4c-6.6-11.2-9-23.6-6.3-34.7c4.3-18,20.7-27.8,25.5-30.5c1.6,0.2,20.1,2.7,28,18.6
		c3.9,7.8,3.4,15.3,2.9,18.9c6.5,2,12.8,3.4,19,4.3c35.6,5.1,65.5-7.7,75.1-28.6c1.9-4.1,6.9-16.9-0.1-37.2
		c3.1-5.8,10-21.1,8.1-41.2c0-0.4-0.1-0.8-0.1-1.2c-2.1-17.9-10.3-30.3-14.2-35.5c-2.3,5.3-4.6,10.5-6.9,15.8
		c-0.8-0.5-2.3-1.1-3.8-2.5C728,714,735,672.3,715,657.2c-2.7-2-7.3-4.6-14.7-5.3l7.9-16.1l11.2,13.5l22-6.6l8.6,37.5l12.2-5.9
		c0.3,12.8,0.7,25.7,1,38.5c6-1,14-3,22.7-7c3.8-1.7,7.8-3.8,11.7-6.4c25-16,34.9-39.5,38.2-48.5c3.7-3.8,11-12.4,14.1-25.6
		c2.2-9.1,1.5-16.9,0.7-21.7c3.3-2.2,8-5.9,12.2-11.7c5-6.8,7.2-13.5,8.2-17.6C857.4,561.6,839.1,546.8,815.6,533 M728.6,540.8
		c0,0-2.6,3.8-15,9.3c0,0-10.1-14.4-29.7-22C683.9,528.1,714.2,526.6,728.6,540.8 M535.6,766.5c-21-12.1-34.5-27.3-42.2-37.6
		c7.2-12.7,17.3-34.4,20.7-63c2.6-21.7,0.4-40-2.1-52.7c-17.6,4.9-38.9,12.4-61.6,24.4c-33.2,17.5-57.5,38.2-73.8,54.6
		c2.7-11.4,7.7-27,17.4-43.6c7.3-12.4,15.3-22,22.1-29.1c-14.2,2.2-31.4,6.3-50,14c-37.7,15.5-63.2,38.4-77.9,54.1
		c-1.6-22.8,2.6-40.4,7-52.3c27.6-75.9,121.7-94.4,130.2-95.9c5.8,10.6,20.3,33.6,48.8,49.8c21.9,12.5,42.5,15.6,54.1,16.4
		c2.7,5.5,5,11.4,6.6,17.7c11.4,43.6-12.7,83.3-21.7,96.8c5.7,9.5,13.5,20.9,24.1,32.5c10.7,11.8,21.4,20.8,30.5,27.4
		C558.8,777.5,547.5,773.4,535.6,766.5 M755.4,741.9c1.4,4.4,3.4,12.3,2.2,22c-0.2,1.9-0.5,3.7-0.9,5.4c-1.2,5.1-2.9,9.1-4.4,11.9
		c-3.1,1-13.3,4.1-25.3-0.1c-11-3.9-16.9-11.6-18.8-14.4c-5.3,3.3-9,3.1-10.9,2.6c-9.6-2.2-16.7-18.8-15-41.7
		c0.4-0.1,0.9-0.1,1.5-0.2c1.4-0.1,3.1,0,5.1,0.5c2.1,0.6,3.7,1.4,4.8,2.1c-0.1,1-0.4,2.9-1.7,4.8c-1.6,2.4-3.7,3.5-4.6,3.9
		c4.7,2.7,11.8,5.9,20.9,6.8c3.1,0.3,5.9,0.3,8.4,0.2c0,0,4.2,4.5,1.7,18.4c0.8-0.1,1.7-0.2,2.6-0.4c3.2-0.6,6.8-1.5,10.5-3
		C744.7,755.5,752.2,746.2,755.4,741.9 M713.6,675.1c13.2,11.7,3.6,33.9,18.8,55.7c3,4.3,6,7.3,7.8,8.9c-2.4,1.9-5.4,4.1-9.2,5.9
		c-1.8,0.9-3.6,1.6-5.3,2.2c1.4-4.5,2.7-9.1,4.1-13.6l-18.8-0.5c-1.9-5.7-5.8-14.3-13.4-22.4c-3.5-3.7-7-6.5-10.1-8.5
		c1.5,0,3.7,0.2,6.2,1.1c3.6,1.3,6,3.4,7.2,4.7c-6.3-8.5-7.1-18.8-2.3-25.3c2.8-3.8,6.8-5.5,9.2-6.2c-3.8-2.6-7.7-5.2-11.5-7.8
		C705.8,669.5,710.8,672.7,713.6,675.1 M807.4,670.5c-1.9,3-4.2,6.2-7.2,9.3c-9,9.4-18.9,13.1-23.7,14.6c0.9-6.4,1.3-16-1.6-26.9
		c-1.2-4.6-2.8-8.7-4.5-12c-3.8,1.9-7.5,3.9-11.3,5.8l-10.3-36.4l-24.8,10.8l-5-8.5l-1.3-2.3l19.6-13.5l11.5,9.1l2.8-11.6
		c3.9,1.9,10,5.7,15.4,12.3c8.2,10,10,20.6,10.5,25.2l6.4-6.9c2.5,3.4,7.3,8.7,14.8,12.9c5.6,3.1,10.8,4.5,14.4,5.1
		C812.3,660.5,810.6,665.2,807.4,670.5 M833.8,626.2c-4.2,31.2-47.5,7.7-58.3-11c0,0,6.7,5.2,10.1,5.3c-4.9-7.8-15.1-20.9-31.1-24.6
		c-35.7-8.1-67.2,38.9-70.9,44.5c-20.7,30.9-19.9,63.8-18.7,77.9c1.1-9.2,3.4-21.3,8.5-34.8c5.1-13.4,11.3-24,16.6-31.6
		c-5.2,11.9-10.8,28.2-13.6,48.1c-4.2,30.4,0.2,55.6,4.2,71.4c-2.9-0.3-9.4-1.5-15.5-6.5c-9.6-8-10.5-19.4-10.6-21.5
		c-1.9,10.1-2.9,24.9,5.5,35.2c19.9,24.3,74.6,2.4,85.4,22.2c2.4,4.4,3.5,12.5-5.8,28.2c-2-8-5.6-13-8.4-16
		c-12.8-13.7-37.6-15.7-62.2-4.9c-8.7-8.4-22.4-23.8-31.6-46.9c-6.5-16.4-8.6-31.1-9.2-41.5c-2,5.1-3.9,11.3-5.3,18.5
		c-1.7,9-2,17.1-1.8,23.4c-4.1-0.9-38-8.8-47.7-36.7c-4.7-13.5-5.4-36.3,6.4-41.6c7.8-3.5,19.2,1.5,28.8,11.1
		c3.8-12.9,9.4-28.2,17.8-44.7c10.5-20.5,22.4-36.6,32.6-48.5c-11.3-1.7-29.3-5.8-48.5-17c-24.1-14.1-37.9-32.5-44.6-42.8
		c-3.8,1.2-9.6,2.6-16.6,2.6c-6.7-0.1-12.2-1.3-15.9-2.6c1.7,3.3,3.8,8.2,4.7,14.3c1.6,10.3-0.7,18.6-2.2,22.9
		c-6.4-10.9-19.1-29.3-41.3-44.7c-16.9-11.6-33.1-17.2-44.1-20.1c1.2,7.7,3.7,18.3,9.5,29.9c7.8,15.7,18.1,26,24.8,31.8
		c-0.8-0.2-55.9-17.4-45-81.6c5.2,4.8,14,11.7,26.4,16.1c26.2,9.2,43.5-1.7,76.3,3.3c8.7,1.3,21.5,4.2,36.6,11.5
		c-2.5-4.1-6.9-10.1-14-15.5c-11-8.4-24.6-8.6-24.7-10.8c-0.2-4.3,49.9-20,106.2-8.3c28,5.8,49.7,16.9,64,25.6
		c-12.8-4.1-30.6-8.2-52-9c-18.5-0.7-34.3,1.4-46.3,3.9c15.2,4.8,30.4,9.5,45.6,14.3c1.6,6.2,4.6,14.7,10.3,23.7
		c8.3,12.9,18.3,20.7,24.7,24.9c-7,7.7-16.7,20.2-24.1,37.8c-7.1,16.9-9.3,32.1-10,42.3c6-11.6,14.5-25.4,26.3-39.7
		c14.4-17.4,29.1-30,41.1-38.8c-3.3,3.2-6.8,7.2-10.4,12c-3.7,5-6.5,9.8-8.7,14c4.5-3.5,11-8.1,19.5-12.8
		c15.8-8.7,23.7-13,31.9-12.4c16.6,1.1,19.7,17.7,46.5,27.1c5.3,1.9,9.8,2.8,12.7,3.4c-1.6-2.5-3.1-5.4-4.8-8.6
		c-2.4-4.7-4.8-10.1-4.8-13C808.2,585,838,595,833.8,626.2 M802.2,559.6l-34.5,1.7L789,548l-27.6,2.3c-0.9-4.3-2.4-9.6-4.9-15.3
		c-2.4-5.7-5.2-10.4-7.7-14c13.2,3.2,30.8,9,49.9,19.5c20.5,11.4,35.4,24.4,45.3,34.5C830.1,569.9,816.2,564.8,802.2,559.6"/>
	<path clip-path="url(#SVGID_2_)" fill="#FFFFFF" d="M728.6,540.8c0,0-2.6,3.8-15,9.3c0,0-10.1-14.4-29.7-22
		C683.9,528.1,714.2,526.6,728.6,540.8"/>
</g>
</svg>
