<?xml version="1.0" encoding="utf-8"?>
<!-- Generator: Adobe Illustrator 23.0.1, SVG Export Plug-In . SVG Version: 6.00 Build 0)  -->
<svg version="1.1" id="Layer_1" xmlns="http://www.w3.org/2000/svg" xmlns:xlink="http://www.w3.org/1999/xlink" x="0px" y="0px"
	 viewBox="0 0 205.3 205.3" enable-background="new 0 0 205.3 205.3" xml:space="preserve">
<g>
	<path fill="#9EDDF9" d="M102.7,194.9l-2.8-1.4c-0.8-0.4-20.4-10.7-39.3-33.3c-9.5-11.4-20.7-29.7-25.8-44.6
		c-2.3-0.4-4.5-0.9-6.5-1.3c-4.8-1.1-7.1-6-7.1-12.5V80.4l6.1-6.1c-1-9.4-1.1-13-0.4-22.7l0.3-4.5l4.4-1c0.5-0.1,45.4-10,67-31.6
		l4.2-4.2l4.2,4.2c21.6,21.5,66.5,31.5,67,31.6l4.4,1l0.3,4.5c0.7,9.7,0.5,13.4-0.4,22.7l6.1,6.1v21.3c0,6.6-1.4,10-7.1,12.5
		c-1.9,0.8-4.2,0.9-6.5,1.3c-5.6,14.6-13.7,31.3-25.8,44.6c-19.8,21.8-38.5,32.9-39.3,33.4L102.7,194.9z"/>
</g>
<polygon fill="#0E3556" points="181.2,81.6 166.5,66.9 39,66.8 24.1,81.6 55.3,104.3 167.7,93 "/>
<path fill="#1C457F" d="M102.7,191.6l-1.4-0.7c-0.8-0.4-19.9-10.4-38.4-32.6c-17.1-20.5-36.7-55.5-33.2-106.4l0.2-2.3l2.2-0.5
	c0.5-0.1,46.2-10.2,68.5-32.4l2.1-2.1l2.1,2.1c22.3,22.2,68,32.3,68.5,32.4l2.2,0.5l0.2,2.3c3.5,50.9-16.1,86-33.2,106.4
	c-18.5,22.2-37.6,32.2-38.4,32.6L102.7,191.6z"/>
<linearGradient id="SVGID_1_" gradientUnits="userSpaceOnUse" x1="63.7166" y1="147.8573" x2="125.59" y2="36.1013">
	<stop  offset="0" style="stop-color:#F15B27"/>
	<stop  offset="2.224587e-02" style="stop-color:#F26226"/>
	<stop  offset="0.1747" style="stop-color:#F68823"/>
	<stop  offset="0.3179" style="stop-color:#FAA51D"/>
	<stop  offset="0.448" style="stop-color:#FDBA14"/>
	<stop  offset="0.5605" style="stop-color:#FFC70A"/>
	<stop  offset="0.6425" style="stop-color:#FFCB05"/>
</linearGradient>
<path fill="url(#SVGID_1_)" d="M172.6,52c0,0-46.8-10.1-69.9-33.2C79.5,42,32.7,52,32.7,52c-6.6,96.6,69.9,136.2,69.9,136.2
	S179.3,148.6,172.6,52z"/>
<g>
	<polygon fill="#FFFFFF" points="102.1,31 103.9,34.7 107.9,35.3 105,38.1 105.7,42.1 102.1,40.2 98.5,42.1 99.2,38.1 96.3,35.3 
		100.3,34.7 	"/>
	<polygon fill="#FFFFFF" points="114.1,35.5 115.3,37.8 117.8,38.2 116,39.9 116.4,42.5 114.1,41.3 111.8,42.5 112.3,39.9 
		110.4,38.2 113,37.8 	"/>
	<polygon fill="#FFFFFF" points="122.4,39.5 123.2,41.2 125.1,41.5 123.7,42.8 124.1,44.7 122.4,43.8 120.7,44.7 121,42.8 
		119.6,41.5 121.5,41.2 	"/>
	<polygon fill="#FFFFFF" points="90.8,35.5 89.6,37.8 87.1,38.2 88.9,39.9 88.5,42.5 90.8,41.3 93.1,42.5 92.6,39.9 94.5,38.2 
		91.9,37.8 	"/>
	<polygon fill="#FFFFFF" points="83,39.5 82.1,41.2 80.2,41.5 81.6,42.8 81.3,44.7 83,43.8 84.7,44.7 84.4,42.8 85.7,41.5 
		83.8,41.2 	"/>
</g>
<g>
	<defs>
		<path id="SVGID_2_" d="M45.3,124.8c20.3,44.2,57.4,63.4,57.4,63.4s37.1-19.2,57.4-63.4H45.3z"/>
	</defs>
	<clipPath id="SVGID_3_">
		<use xlink:href="#SVGID_2_"  overflow="visible"/>
	</clipPath>
	<g clip-path="url(#SVGID_3_)">
		<circle fill="#FFFFFF" cx="102.7" cy="174.1" r="22.5"/>
		<g>
			<path fill="#1D4780" d="M102.7,151.3c-12.6,0-22.8,10.2-22.8,22.8c0,12.6,10.2,22.8,22.8,22.8c12.6,0,22.8-10.2,22.8-22.8
				C125.5,161.5,115.3,151.3,102.7,151.3z M101.6,156.7l4.7-2.6c3.5,0.3,5.5,1.2,5.5,1.2s1.7,1,3.9,3.4l0.7,5.3l-4.7,1.6l0,0
				l-8.2-4.3L101.6,156.7L101.6,156.7z M110.4,166.3l-0.8,6.1l-0.6-5.5l-4.6-3.8L110.4,166.3z M101.2,156.6l1.9,4.8l-6.8,5.1l0,0
				l-6.1-0.2l-2.6-3.9l6.8-6.2L101.2,156.6z M90.4,166.8l6.2,0.2l4.6,7.5l-3.6,7.3l-8.6,0.1l-3.1-7.3L90.4,166.8z M84.7,164.4
				l2.4-0.6l2.1,2.7l-2.2-1.4L84.7,164.4z M86.3,160.2c2-2.3,4.5-4.2,7.3-5.6l0.1,0.4l0.2,0.5l0.2,0.5l-7.2,6.6l0.1,0.1l-2.7,0.6
				C84.8,162.2,85.5,161.2,86.3,160.2z M83.1,181.8c-1-2.5-1.6-5.1-1.6-7.6l4.1,0.7l3,7l-0.1,0l-0.2,6.4l-0.4,0.5
				C85.8,186.8,84.2,184.5,83.1,181.8z M88.1,189l0.4-0.4l9.1,4.8l0.2,0.8C94.2,193.5,90.8,191.7,88.1,189z M110.4,193.3
				c-4,1.6-8.2,1.9-12.1,1.1l-0.3-1l6.1-4l6-0.8l4,2.7C112.9,192.1,111.7,192.7,110.4,193.3z M110.1,188.2L104,189l-6-7l3.6-7.2
				l8.5-0.6l4.5,6.2L110.1,188.2z M110.5,174.1l1.1-8.1l5-1.7l4.6,6.1l-1.2,8.3l-5.1,1.6L110.5,174.1z M118.2,180.3l1.6-0.3l1.4,3.1
				L118.2,180.3z M120.4,179.1l1.2-8.5c0.7-0.2,0.6-0.1,1.1-0.3c0.7,4.1,0.2,8.3-1.4,12.1L120.4,179.1z"/>
		</g>
	</g>
</g>
<g>
	<path fill="#231F20" d="M63.5,59c0,2.8-1.9,4.3-4,4.5c-0.8,0.1-1.3,0.1-2.2,0.1h-1.7v5h-3.7V54.4h5.4c0.9,0,1.5,0,2.2,0.1
		C61.6,54.7,63.5,56.2,63.5,59z M59.6,59c0-1.1-0.6-1.6-1.5-1.7c-0.3,0-0.6,0-1,0h-1.5v3.5h1.5c0.4,0,0.7,0,1,0
		C59,60.7,59.6,60.1,59.6,59z"/>
	<path fill="#231F20" d="M79.4,61.5c0,4.6-2.9,7.4-7.3,7.4c-4.5,0-7.3-2.9-7.3-7.4c0-4.6,2.9-7.4,7.3-7.4
		C76.5,54.1,79.4,56.9,79.4,61.5z M75.5,61.5c0-3-1.3-4.7-3.5-4.7c-2.2,0-3.5,1.7-3.5,4.7c0,3,1.3,4.7,3.5,4.7
		C74.2,66.2,75.5,64.6,75.5,61.5z"/>
	<path fill="#231F20" d="M95.1,68.7h-4.7l-4-5.5l-1,1.1v4.4h-3.7V54.4h3.7v6.3l5.5-6.3h4.5l-6.2,6.7L95.1,68.7z"/>
	<path fill="#231F20" d="M110.2,68.7h-3.7v-5.6h-5.7v5.6H97V54.4h3.7v5.8h5.7v-5.8h3.7V68.7z"/>
	<path fill="#231F20" d="M116.6,65l-1.2,3.7h-4l5.2-14.3h4.6l5.2,14.3h-4.1L121,65H116.6z M117.5,62.1h2.7l-1.3-4.4L117.5,62.1z"/>
	<path fill="#231F20" d="M139.9,68.7h-4.1c-0.3-1-0.5-1.8-0.7-2.9c-0.2-1.6-0.8-2.5-1.8-2.6c-0.4,0-0.8,0-1.2,0h-0.8v5.4h-3.7V54.4
		h5.7c0.9,0,1.5,0,2.2,0.1c2.1,0.2,3.9,1.3,3.9,3.8c0,1.8-1,3-2.9,3.6c1.5,0.5,2,1.6,2.2,3.4C139,66.8,139.3,67.8,139.9,68.7z
		 M132.7,60.6c0.4,0,0.7,0,1,0c1-0.1,1.8-0.4,1.8-1.6s-0.8-1.5-1.7-1.6c-0.3,0-0.6,0-1,0h-1.5v3.3H132.7z"/>
	<path fill="#231F20" d="M145.4,65l-1.2,3.7h-4l5.2-14.3h4.6l5.2,14.3H151l-1.2-3.7H145.4z M146.3,62.1h2.7l-1.3-4.4L146.3,62.1z"/>
</g>
<path fill="#0B4D8A" d="M174,79.9c-18.3-4.1-43.5-6.6-71.3-6.6s-53,2.5-71.3,6.6c-2.5,0.6-5,1.2-7.2,1.8l0,20
	c0,5.2,3.2,9.6,7.8,10.6c18.3,4,43.2,6.5,70.8,6.5s52.5-2.5,70.8-6.5c4.5-1,7.8-5.4,7.8-10.6l0-20C178.9,81,176.5,80.4,174,79.9z"/>
<g>
	<g>
		<polygon fill="#F7EB36" points="86.8,92.3 78.1,116.1 89.4,98.6 97.1,104 104.5,74.9 94.5,97.4 		"/>
		<linearGradient id="SVGID_4_" gradientUnits="userSpaceOnUse" x1="78.1002" y1="95.4716" x2="104.4766" y2="95.4716">
			<stop  offset="0" style="stop-color:#F28021"/>
			<stop  offset="0.5" style="stop-color:#FAB516"/>
			<stop  offset="1" style="stop-color:#F28021"/>
		</linearGradient>
		<polygon fill="url(#SVGID_4_)" points="85,87.3 78.1,116.1 86.8,92.3 94.5,97.4 104.5,74.9 92.9,92.4 		"/>
	</g>
	<g>
		<polygon fill="#FFFFFF" points="58.1,88.4 57.3,93 56.8,95.6 48.9,95.6 49.4,92.9 50.2,88.4 46.3,88.4 45.5,93 43.2,106 47.1,106 
			48.4,98.9 56.2,98.9 55,106 58.9,106 61.2,92.9 61.9,88.4 		"/>
		<polygon fill="#FFFFFF" points="124.2,101.4 124.5,99.9 124.6,99.4 126.1,99.4 129.8,99.4 131,99.4 131.6,99.4 134.9,94.8 
			131.8,94.8 125.4,94.8 125.4,94.6 125.7,92.9 127.5,92.9 131.3,92.9 132.6,92.9 133.3,92.9 136.6,88.4 133.3,88.4 126.5,88.4 
			126.5,88.4 122.6,88.4 121.8,93 119.5,106 120.7,106 120.7,106 125.2,106 129.1,106 130.3,106 131.1,106 134.4,101.4 131.1,101.4 
					"/>
		<path fill="#FFFFFF" d="M149.6,100.5c2.1-0.7,3.9-3.1,4.4-5.9v0c0.6-3.4-0.9-6.1-3.4-6.1h-2.8v0h-8l-3.3,4.5H147h1.9
			c0.8,0,1.3,0.9,1.1,2c-0.2,1.1-1,2-1.8,2h-1.9h-6.7h-3.9v0l-0.4,2.3l-0.1,0.8l0,0.1l-0.4,2.4l0,0.2l-0.1,0.8l-0.4,2.4h2.7v0h1.1
			l1-5.5h5.4l3.1,5.5h5.9L149.6,100.5z"/>
		<path fill="#FFFFFF" d="M171.8,93l3.4-4.6h-12.7c-2.5,0-5,2.1-5.4,4.6l-0.3,1.5c-0.4,2.5,1.3,4.6,3.8,4.6h7.7
			c0.6,0,1.1,0.5,0.9,1.1l0,0c-0.1,0.6-0.7,1.1-1.3,1.1h-10.1l-3.1,4.6h12.7c2.5,0,5-2.1,5.4-4.6l0.3-1.5c0.4-2.5-1.3-4.6-3.8-4.6
			h-7.7c-0.6,0-1.1-0.5-0.9-1.1l0,0c0.1-0.6,0.7-1.1,1.3-1.1H171.8z"/>
		<path fill="#FFFFFF" d="M76.8,88.4l-1.9,11.1c-0.2,1.3-1.5,2.3-2.7,2.3h-4c-1.3,0-2.2-1-1.9-2.3l1.9-11.1H64l-2,11.4
			c-0.6,3.4,1.7,6.2,5.1,6.2h4.6c3.4,0,6.6-2.8,7.2-6.2l2-11.4H76.8z"/>
		<path fill="#FFFFFF" d="M106.1,88.4l-2.7,4.5h9.2c1.8,0,3,1.4,2.7,3.2l-0.4,2.1c-0.3,1.8-2,3.2-3.8,3.2H106l1.3-7.4h-4.1
			l-2.1,11.9h4.1h6.2c3.4,0,6.6-2.8,7.2-6.1l0.9-5.3c0.6-3.4-1.7-6.1-5.1-6.1H106.1z"/>
		<polygon fill="#FFFFFF" points="31.8,88.4 29,92.1 32.4,92.1 34,92.1 31.6,106 35.4,106 37.9,92.1 39.4,92.1 42.4,92.1 45.2,88.4 
					"/>
	</g>
	<g>
		<defs>
			<path id="SVGID_5_" d="M61.9,88.4l-0.8,4.4L58.9,106H55l1.2-7.1h-7.9l-1.2,7.1h-3.9L45.5,93l0.8-4.5h3.9l-0.8,4.4l-0.5,2.7h7.9
				l0.5-2.6l0.8-4.5H61.9z M124.2,101.4l0.3-1.5l0.1-0.4h1.6h3.7h1.2h0.6l3.3-4.6h-3.2h-6.4l0-0.2l0.3-1.6h1.8h3.9h1.3h0.7l3.3-4.5
				h-3.3h-6.8l0,0h-3.9l-0.8,4.5l-2.3,13.1h1.1v0h4.5h3.9h1.3h0.7l3.3-4.7h-3.3H124.2z M149.6,100.5c2.1-0.7,3.9-3.1,4.4-5.9v0
				c0.6-3.4-0.9-6.1-3.4-6.1h-2.8v0h-8l-3.3,4.5H147h1.9c0.8,0,1.3,0.9,1.1,2c-0.2,1.1-1,2-1.8,2h-1.9h-6.7h-3.9v0l-0.4,2.3
				l-0.1,0.8l0,0.1l-0.4,2.4l0,0.2l-0.1,0.8l-0.4,2.4h2.7v0h1.1l1-5.5h5.4l3.1,5.5h5.9L149.6,100.5z M171.8,93l3.4-4.6h-12.7
				c-2.5,0-5,2.1-5.4,4.6l-0.3,1.5c-0.4,2.5,1.3,4.6,3.8,4.6h7.7c0.6,0,1.1,0.5,0.9,1.1l0,0c-0.1,0.6-0.7,1.1-1.3,1.1h-10.1
				l-3.1,4.6h12.7c2.5,0,5-2.1,5.4-4.6l0.3-1.5c0.4-2.5-1.3-4.6-3.8-4.6h-7.7c-0.6,0-1.1-0.5-0.9-1.1l0,0c0.1-0.6,0.7-1.1,1.3-1.1
				H171.8z M76.8,88.4l-1.9,11.1c-0.2,1.3-1.5,2.3-2.7,2.3h-4c-1.3,0-2.2-1-1.9-2.3l1.9-11.1H64l-2,11.4c-0.6,3.4,1.7,6.2,5.1,6.2
				h4.6c3.4,0,6.6-2.8,7.2-6.2l2-11.4H76.8z M106.1,88.4l-2.7,4.5h9.2c1.8,0,3,1.4,2.7,3.2l-0.4,2.1c-0.3,1.8-2,3.2-3.8,3.2H106
				l1.3-7.4h-4.1l-2.1,11.9h4.1h6.2c3.4,0,6.6-2.8,7.2-6.1l0.9-5.3c0.6-3.4-1.7-6.1-5.1-6.1H106.1z M31.8,88.4L29,92.1h3.4H34
				l-2.4,14h3.9l2.4-14h1.5h3l2.8-3.6H31.8z"/>
		</defs>
		<clipPath id="SVGID_6_">
			<use xlink:href="#SVGID_5_"  overflow="visible"/>
		</clipPath>
		<rect x="12.8" y="97" clip-path="url(#SVGID_6_)" fill="#B8E3EF" width="170.5" height="31.6"/>
	</g>
</g>
</svg>
